<svg xmlns="http://www.w3.org/2000/svg" version="1.1" xmlns:xlink="http://www.w3.org/1999/xlink" width="1000" height="1000"><g clip-path="url(#SvgjsClipPath1115)"><rect width="1000" height="1000" fill="#262d2f"></rect><g transform="matrix(3.6458333333333335,0,0,3.6458333333333335,150,168.22916666666663)"><svg xmlns="http://www.w3.org/2000/svg" version="1.1" xmlns:xlink="http://www.w3.org/1999/xlink" width="192" height="182"><svg width="192" height="182" viewBox="0 0 192 182" fill="none" xmlns="http://www.w3.org/2000/svg">
<path d="M95.5225 0C114.087 0.00307514 129.744 12.4496 134.607 29.4531L135.014 30.8408C139.186 44.8282 142.912 47.8875 157.94 50.7334L157.938 50.7344C176.776 54.2803 191.027 70.8171 191.027 90.6846C191.027 110.694 176.571 127.326 157.534 130.71C142.394 133.621 138.932 136.854 134.631 151.826C129.794 168.871 114.1 181.356 95.5059 181.359C76.9113 181.357 61.233 168.871 56.3955 151.826C52.0934 136.852 48.6315 133.621 33.4863 130.709C14.4525 127.322 0.00049642 110.691 0 90.6846C0.000167847 70.8172 14.2516 54.2804 33.0889 50.7344L33.0869 50.7334C48.1151 47.8876 51.8405 44.8278 56.0127 30.8408L56.4189 29.4531C61.2826 12.4491 76.9569 0.00238656 95.5225 0ZM64.3457 64.9912C49.1134 64.9916 36.7639 77.3289 36.7637 92.5469C36.7637 107.765 49.1133 120.102 64.3457 120.103C77.3068 120.102 88.1783 111.17 91.1328 99.1309H100.24C103.164 111.195 113.979 120.151 126.875 120.151C142.016 120.151 154.291 107.807 154.291 92.5791C154.291 77.3516 142.016 65.007 126.875 65.0068C113.989 65.0071 103.181 73.9484 100.247 85.998H91.1406C88.1984 73.9417 77.3192 64.9914 64.3457 64.9912ZM139.209 80.1748V104.99H114.534V80.1748H139.209ZM76.75 80.1494V104.949H51.9268V80.1494H76.75Z" fill="#20DAFF"></path>
</svg></svg></g></g><defs><clipPath id="SvgjsClipPath1115"><rect width="1000" height="1000" x="0" y="0" rx="500" ry="500"></rect></clipPath></defs></svg>