<svg width="24" height="24" viewBox="0 0 24 24" fill="none" xmlns="http://www.w3.org/2000/svg">
<path d="M12.0566 1.5C14.2062 1.50034 16.0198 2.94138 16.583 4.91016L16.6299 5.07129C17.113 6.69072 17.5443 7.04549 19.2842 7.375C21.4654 7.78559 23.1162 9.70046 23.1162 12.001C23.116 14.3177 21.4416 16.2439 19.2373 16.6357C17.4849 16.9727 17.0838 17.3466 16.5859 19.0791C16.0264 21.0528 14.2113 22.4988 12.0586 22.5H12.0566C9.90405 22.4987 8.08982 21.0527 7.53027 19.0791C7.03234 17.3464 6.63087 16.9718 4.87793 16.6348C2.67407 16.2426 1.00021 14.3174 1 12.001C1.00002 9.70065 2.65008 7.7858 4.83105 7.375C6.57121 7.04547 7.00321 6.6909 7.48633 5.07129L7.5332 4.91016C8.09632 2.94209 9.908 1.50127 12.0566 1.5ZM11 12.5859L9.20703 10.793L7.79297 12.207L11 15.4141L16.707 9.70703L15.293 8.29297L11 12.5859Z" fill="black"/>
</svg>
