<svg width="24" height="24" viewBox="0 0 24 24" fill="none" xmlns="http://www.w3.org/2000/svg">
<path fill-rule="evenodd" clip-rule="evenodd" d="M17.0129 16.6456H7.99685V10.9051H17.0129V16.6456ZM10.2457 13.7761L12.5065 15.9936L14.767 13.7761L12.5065 11.5587L10.2457 13.7761Z" fill="black"/>
<path fill-rule="evenodd" clip-rule="evenodd" d="M10.5824 3.10546C11.1972 2.9606 11.8391 2.88337 12.4994 2.88337L12.7102 2.88591C13.2968 2.90047 13.868 2.97588 14.4176 3.10546V1.00018H17.7813V4.78086C19.1581 5.92512 20.1424 7.50837 20.5095 9.30979C21.985 10.0244 22.9998 11.5127 23 13.2344C23 14.8935 22.0571 16.3347 20.6681 17.0767V20.1301H16.6953C16.0677 21.8043 14.4274 22.9995 12.5006 22.9995H12.4994C10.5726 22.9994 8.93192 21.8043 8.30435 20.1301H4.33056V17.0761C2.94241 16.3338 2.00005 14.8928 2 13.2344C2.00025 11.5137 3.01443 10.0256 4.48885 9.31043C4.856 7.50825 5.84117 5.92468 7.2187 4.78022V0.999542H10.5824V3.10546ZM12.4994 5.08238C9.22765 5.08238 6.57548 7.68032 6.57548 10.8851V17.9311H18.4232V10.8851C18.4232 7.68032 15.771 5.08239 12.4994 5.08238Z" fill="black"/>
</svg>
