<svg width="24" height="24" viewBox="0 0 24 24" fill="none" xmlns="http://www.w3.org/2000/svg">
<path d="M3 16V21H8V23H1V16H3Z" fill="black"/>
<path d="M23 23H16V21H21V16H23V23Z" fill="black"/>
<path d="M9 12C9.55229 12 10 12.4477 10 13C10 13.5523 9.55229 14 9 14C8.44772 14 8 13.5523 8 13C8 12.4477 8.44772 12 9 12Z" fill="black"/>
<path d="M15 12C15.5523 12 16 12.4477 16 13C16 13.5523 15.5523 14 15 14C14.4477 14 14 13.5523 14 13C14 12.4477 14.4477 12 15 12Z" fill="black"/>
<path fill-rule="evenodd" clip-rule="evenodd" d="M12 4C16.4183 4 20 7.58172 20 12C20 16.4183 16.4183 20 12 20C7.58172 20 4 16.4183 4 12C4 7.58172 7.58172 4 12 4ZM12 8.4248C10.9495 9.97853 9.17184 11.0008 7.15527 11.001H6.08496C6.03047 11.326 6 11.6595 6 12C6 15.3137 8.68629 18 12 18C15.3137 18 18 15.3137 18 12C18 11.6595 17.9695 11.326 17.915 11.001H16.8447C14.8282 11.0008 13.0505 9.97853 12 8.4248Z" fill="black"/>
<path d="M8 3H3V8H1V1H8V3Z" fill="black"/>
<path d="M23 1V8H21V3H16V1H23Z" fill="black"/>
</svg>
