<svg width="24" height="24" viewBox="0 0 24 24" fill="none" xmlns="http://www.w3.org/2000/svg">
<path fill-rule="evenodd" clip-rule="evenodd" d="M20 12C20 16.4183 16.4183 20 12 20C7.58172 20 4 16.4183 4 12C4 7.58172 7.58172 4 12 4C16.4183 4 20 7.58172 20 12ZM10 10C10 10.5523 9.55229 11 9 11C8.44771 11 8 10.5523 8 10C8 9.44771 8.44771 9 9 9C9.55229 9 10 9.44771 10 10ZM15 11C15.5523 11 16 10.5523 16 10C16 9.44771 15.5523 9 15 9C14.4477 9 14 9.44771 14 10C14 10.5523 14.4477 11 15 11ZM9 13L12 16L15 13H9Z" fill="black"/>
<path d="M2 2H6V4H4V6H2V2Z" fill="black"/>
<path d="M6 22V20H4V18H2V22H6Z" fill="black"/>
<path d="M18 2H22V6H20V4H18V2Z" fill="black"/>
<path d="M18 22V20H20V18H22V22H18Z" fill="black"/>
</svg>
