<svg width="24" height="24" viewBox="0 0 24 24" fill="none" xmlns="http://www.w3.org/2000/svg">
<path fill-rule="evenodd" clip-rule="evenodd" d="M22 6.01953L20.0244 7.99414C20.6265 9.19915 20.9668 10.5584 20.9668 11.9971C20.9667 13.4367 20.6254 14.7964 20.0225 16.002L21.9941 17.9736L17.9736 21.9941L16.001 20.0215C14.7958 20.6238 13.437 20.9658 11.998 20.9658C10.5598 20.9658 9.20179 20.6242 7.99707 20.0225L6.02637 21.9941L2.00586 17.9736L3.97461 16.0039C3.37113 14.7979 3.02939 13.4374 3.0293 11.9971C3.0293 10.5577 3.37006 9.19762 3.97266 7.99219L2 6.01953L6.01953 2L7.99219 3.97168C9.19797 3.36858 10.5581 3.02837 11.998 3.02832C13.4387 3.02832 14.7996 3.36905 16.0059 3.97266L17.9805 2L22 6.01953ZM7.75781 11.9922L12 16.2354L16.2422 11.9922L12 7.75L7.75781 11.9922Z" fill="black"/>
</svg>
