<svg width="24" height="24" viewBox="0 0 24 24" fill="none" xmlns="http://www.w3.org/2000/svg">
<path d="M7.18125 13.0688C7.46875 13.3562 7.825 13.5 8.25 13.5H14.25V16.5H6.75V19.5H10.5V21H13.5V19.5H15.75C16.175 19.5 16.5312 19.3563 16.8188 19.0688C17.1062 18.7813 17.25 18.425 17.25 18V12C17.25 11.575 17.1062 11.2188 16.8188 10.9312C16.5312 10.6437 16.175 10.5 15.75 10.5H9.75V7.5H17.25V4.5H13.5V3H10.5V4.5H8.25C7.825 4.5 7.46875 4.64375 7.18125 4.93125C6.89375 5.21875 6.75 5.575 6.75 6V12C6.75 12.425 6.89375 12.7812 7.18125 13.0688Z" fill="black"/>
</svg>
