<svg width="24" height="24" viewBox="0 0 24 24" fill="none" xmlns="http://www.w3.org/2000/svg">
<path d="M3.41406 4L21.4141 22H18.5859L15.0117 18.4258C14.4218 18.6082 13.7561 18.7241 13.0205 18.7686V21.2051H11.1309V18.7686C8.33786 18.5796 6.78379 17.5507 6.25879 15.3037H9.57715C9.85015 16.2067 11.0052 16.5215 12.1602 16.5215C12.486 16.5215 12.7813 16.4994 13.0469 16.4609L9.25586 12.6699C8.35625 12.4877 7.69288 12.1627 7.2666 11.6924C6.82223 11.202 6.5466 10.5884 6.42969 9.84375L0.585938 4H3.41406Z" fill="black"/>
<path d="M11.4941 10.0801C11.6667 10.0948 11.8531 10.1083 12.0547 10.1172L13.8604 10.2217C16.9683 10.3897 18.04 11.797 18.04 14.0859V14.3174C18.04 15.059 17.9096 15.7017 17.666 16.252L11.4941 10.0801Z" fill="black"/>
<path d="M12.9365 4.53125C15.6245 4.72025 17.4096 5.81209 17.7246 7.99609H14.3857C14.0498 7.15618 13.3359 6.7784 11.9922 6.77832C10.4975 6.77832 9.70348 7.24466 9.5918 8.17773L7.375 5.96094C8.15065 5.13896 9.37329 4.6548 11.0469 4.53125V2.09473H12.9365V4.53125Z" fill="black"/>
</svg>
