<svg width="24" height="24" viewBox="0 0 24 24" fill="none" xmlns="http://www.w3.org/2000/svg">
<path d="M6.84954 5.43525L9.75008 8.33579V7.5H17.2501V4.5H13.5001V3H10.5001V4.5H8.25008C7.82508 4.5 7.46883 4.64375 7.18133 4.93125C7.0319 5.08068 6.9213 5.24868 6.84954 5.43525Z" fill="black"/>
<path d="M11.9143 10.5L17.2501 15.8358V12C17.2501 11.575 17.1063 11.2188 16.8188 10.9312C16.5313 10.6437 16.1751 10.5 15.7501 10.5H11.9143Z" fill="black"/>
<path d="M10.0859 13.5L13.0859 16.5H6.75008V19.5H10.5001V21H13.5001V19.5H15.7501C15.8572 19.5 15.96 19.4909 16.0584 19.4726L19.293 22.7071L20.7072 21.2929L2.70718 3.29289L1.29297 4.70711L6.75008 10.1642V12C6.75008 12.425 6.89383 12.7812 7.18133 13.0688C7.46883 13.3562 7.82508 13.5 8.25008 13.5H10.0859Z" fill="black"/>
</svg>
