<svg width="24" height="24" viewBox="0 0 24 24" fill="none" xmlns="http://www.w3.org/2000/svg">
<path d="M12.9368 2.09497V4.53052C15.6248 4.71952 17.4099 5.81234 17.7249 7.99634H14.386C14.05 7.15642 13.3362 6.77766 11.9924 6.77759C10.3754 6.77759 9.57739 7.32426 9.57739 8.41626V8.52075C9.57739 9.71773 10.144 10.0334 12.0549 10.1174L13.8606 10.2219C16.9686 10.3899 18.0403 11.7972 18.0403 14.0862V14.3167C18.0403 17.1727 16.1498 18.5798 13.0208 18.7688V21.2053H11.1311V18.7688C8.3381 18.5798 6.78403 17.551 6.25903 15.304H9.57739C9.85044 16.2069 11.0054 16.5217 12.1604 16.5217C13.9242 16.5217 14.8059 15.9755 14.8059 14.6946V14.5266C14.8058 13.33 14.2599 13.0149 12.3284 12.9309L10.5432 12.8264C8.96821 12.7424 7.87585 12.3637 7.26685 11.6917C6.65804 11.0197 6.36453 10.1169 6.3645 8.96216V8.85669C6.36461 6.25286 7.91823 4.76151 11.0471 4.53052V2.09497H12.9368Z" fill="black"/>
</svg>
