<svg width="24" height="24" viewBox="0 0 24 24" fill="none" xmlns="http://www.w3.org/2000/svg">
<path fill-rule="evenodd" clip-rule="evenodd" d="M15.7787 19.1929L19.293 22.7071L20.7072 21.2929L2.70718 3.29291L1.29297 4.70712L4.41279 7.82694C2.72181 9.88294 2.00008 12 2.00008 12C2.00008 12 4.72735 20 12.0001 20C13.431 20 14.6859 19.6903 15.7787 19.1929ZM13.3901 16.8043L11.5527 14.9669C10.254 14.7727 9.22737 13.7461 9.0332 12.4474L7.19583 10.61C7.06838 11.0513 7.00008 11.5177 7.00008 12C7.00008 14.7614 9.23865 17 12.0001 17C12.4824 17 12.9488 16.9317 13.3901 16.8043Z" fill="black"/>
<path d="M18.6297 17.2154C21.0093 14.9063 22.0001 12 22.0001 12C22.0001 12 19.2728 4.00001 12.0001 4.00001C9.97105 4.00001 8.29582 4.6227 6.93491 5.52063L9.24269 7.82841C10.0331 7.30489 10.981 7.00001 12.0001 7.00001C14.7615 7.00001 17.0001 9.23859 17.0001 12C17.0001 13.0191 16.6952 13.967 16.1717 14.7574L18.6297 17.2154Z" fill="black"/>
<path d="M14.7077 13.2934C14.8951 12.9018 15.0001 12.4632 15.0001 12C15.0001 10.3432 13.6569 9.00001 12.0001 9.00001C11.5369 9.00001 11.0983 9.10497 10.7067 9.29239L14.7077 13.2934Z" fill="black"/>
</svg>
