<svg width="24" height="24" viewBox="0 0 24 24" fill="none" xmlns="http://www.w3.org/2000/svg">
<path fill-rule="evenodd" clip-rule="evenodd" d="M20.4141 21H17.5859L15.7783 19.1934C14.6856 19.6907 13.4307 20 12 20C4.72733 19.9999 2 12 2 12C2.00381 11.9889 2.72658 9.87771 4.41309 7.82715L1.58594 5H4.41406L20.4141 21ZM7.19629 10.6104C7.06887 11.0516 7.00001 11.5177 7 12C7 14.7614 9.23861 17 12 17C12.4822 17 12.9485 16.932 13.3896 16.8047L11.5527 14.9668C10.254 14.7726 9.22737 13.746 9.0332 12.4473L7.19629 10.6104Z" fill="black"/>
<path d="M12 4C19.2586 4 21.9894 11.969 22 12C22 12 21.0095 14.9067 18.6299 17.2158L16.1719 14.7578C16.6954 13.9674 17 13.0191 17 12C17 9.23861 14.7614 7 12 7C10.9812 7.00002 10.0335 7.30482 9.24316 7.82812L6.93457 5.52051C8.29546 4.62259 9.971 4.00002 12 4Z" fill="black"/>
<path d="M12 9C13.6568 9 15 10.3432 15 12C15 12.4631 14.8954 12.9023 14.708 13.2939L10.707 9.29199C11.0985 9.10473 11.5371 9.00001 12 9Z" fill="black"/>
</svg>
