<svg width="24" height="24" viewBox="0 0 24 24" fill="none" xmlns="http://www.w3.org/2000/svg">
<path d="M12 15C13.6569 15 15 13.6569 15 12C15 10.3431 13.6569 9 12 9C10.3431 9 9 10.3431 9 12C9 13.6569 10.3431 15 12 15Z" fill="black"/>
<path fill-rule="evenodd" clip-rule="evenodd" d="M22 12C22 12 19.2727 20 12 20C4.72727 20 2 12 2 12C2 12 4.72727 4 12 4C19.2727 4 22 12 22 12ZM17 12C17 14.7614 14.7614 17 12 17C9.23858 17 7 14.7614 7 12C7 9.23858 9.23858 7 12 7C14.7614 7 17 9.23858 17 12Z" fill="black"/>
</svg>
