<svg width="24" height="24" viewBox="0 0 24 24" fill="none" xmlns="http://www.w3.org/2000/svg">
<path fill-rule="evenodd" clip-rule="evenodd" d="M12 18.001C11.0878 20.4293 9.6356 22 8 22C5.23858 22 3 17.5228 3 12C3 6.47715 5.23858 2 8 2C9.6356 2 11.0878 3.57069 12 5.99903C12.9122 3.57069 14.3644 2 16 2C18.7614 2 21 6.47715 21 12C21 17.5228 18.7614 22 16 22C14.3644 22 12.9122 20.4293 12 18.001ZM9 16C9 17.1046 8.10457 18 7 18C5.89543 18 5 17.1046 5 16C5 14.8954 5.89543 14 7 14C8.10457 14 9 14.8954 9 16ZM17 16C17 17.1046 16.1046 18 15 18C13.8954 18 13 17.1046 13 16C13 14.8954 13.8954 14 15 14C16.1046 14 17 14.8954 17 16Z" fill="black"/>
</svg>
