<svg width="24" height="24" viewBox="0 0 24 24" fill="none" xmlns="http://www.w3.org/2000/svg">
<path d="M8.5 12C9.32843 12 10 12.6716 10 13.5C10 14.3284 9.32843 15 8.5 15C7.67157 15 7 14.3284 7 13.5C7 12.6716 7.67157 12 8.5 12Z" fill="black"/>
<path d="M15.5 12C16.3284 12 17 12.6716 17 13.5C17 14.3284 16.3284 15 15.5 15C14.6716 15 14 14.3284 14 13.5C14 12.6716 14.6716 12 15.5 12Z" fill="black"/>
<path fill-rule="evenodd" clip-rule="evenodd" d="M12 2C17.5228 2 22 6.47715 22 12C22 17.5228 17.5228 22 12 22C6.47715 22 2 17.5228 2 12C2 6.47715 6.47715 2 12 2ZM12 7.06445C10.7671 9.12214 8.51657 10.5 5.94336 10.5H4.1416C4.04941 10.9859 4 11.4872 4 12C4 16.4183 7.58172 20 12 20C16.4183 20 20 16.4183 20 12C20 11.4872 19.9506 10.9859 19.8584 10.5H18.0566C15.4834 10.5 13.2329 9.12214 12 7.06445Z" fill="black"/>
</svg>
