<svg width="24" height="24" viewBox="0 0 24 24" fill="none" xmlns="http://www.w3.org/2000/svg">
<path d="M4.54989 19C3.69989 19 3.04156 18.7042 2.57489 18.1125C2.10823 17.5208 1.93323 16.8 2.04989 15.95L3.09989 8.45C3.24989 7.45 3.69573 6.625 4.43739 5.975C5.17906 5.325 6.04989 5 7.04989 5H16.9499C17.9499 5 18.8207 5.325 19.5624 5.975C20.3041 6.625 20.7499 7.45 20.8999 8.45L21.9499 15.95C22.0666 16.8 21.8916 17.5208 21.4249 18.1125C20.9582 18.7042 20.2999 19 19.4499 19C19.0999 19 18.7749 18.9375 18.4749 18.8125C18.1749 18.6875 17.8999 18.5 17.6499 18.25L15.3999 16H8.59989L6.34989 18.25C6.09989 18.5 5.82489 18.6875 5.52489 18.8125C5.22489 18.9375 4.89989 19 4.54989 19ZM16.9999 13C17.2832 13 17.5207 12.9042 17.7124 12.7125C17.9041 12.5208 17.9999 12.2833 17.9999 12C17.9999 11.7167 17.9041 11.4792 17.7124 11.2875C17.5207 11.0958 17.2832 11 16.9999 11C16.7166 11 16.4791 11.0958 16.2874 11.2875C16.0957 11.4792 15.9999 11.7167 15.9999 12C15.9999 12.2833 16.0957 12.5208 16.2874 12.7125C16.4791 12.9042 16.7166 13 16.9999 13ZM14.9999 10C15.2832 10 15.5207 9.90417 15.7124 9.7125C15.9041 9.52083 15.9999 9.28333 15.9999 9C15.9999 8.71667 15.9041 8.47917 15.7124 8.2875C15.5207 8.09583 15.2832 8 14.9999 8C14.7166 8 14.4791 8.09583 14.2874 8.2875C14.0957 8.47917 13.9999 8.71667 13.9999 9C13.9999 9.28333 14.0957 9.52083 14.2874 9.7125C14.4791 9.90417 14.7166 10 14.9999 10ZM7.74989 13H9.24989V11.25H10.9999V9.75H9.24989V8H7.74989V9.75H5.99989V11.25H7.74989V13Z" fill="black"/>
</svg>
