<svg width="24" height="24" viewBox="0 0 24 24" fill="none" xmlns="http://www.w3.org/2000/svg">
<path fill-rule="evenodd" clip-rule="evenodd" d="M1 20L3.33333 4H20.6667L23 20H17.1667L16.9479 17H7.05208L6.83333 20H1ZM14.5 13C15.3284 13 16 12.3284 16 11.5C16 10.6716 15.3284 10 14.5 10C13.6716 10 13 10.6716 13 11.5C13 12.3284 13.6716 13 14.5 13ZM19 8.5C19 9.32843 18.3284 10 17.5 10C16.6716 10 16 9.32843 16 8.5C16 7.67157 16.6716 7 17.5 7C18.3284 7 19 7.67157 19 8.5ZM9 13V11H11V9H9V7H7V9H5V11H7V13H9Z" fill="black"/>
</svg>
