<svg width="24" height="24" viewBox="0 0 24 24" fill="none" xmlns="http://www.w3.org/2000/svg">
<path fill-rule="evenodd" clip-rule="evenodd" d="M12 1C18.0751 1 23 5.92487 23 12C23 18.0751 18.0751 23 12 23C5.92487 23 1 18.0751 1 12C1 5.92487 5.92487 1 12 1ZM3.05664 13C3.46415 16.6856 6.09611 19.6986 9.58105 20.6689C7.96467 18.3591 7.06913 15.6986 6.8916 13H3.05664ZM17.1084 13C16.9309 15.6987 16.0346 18.359 14.418 20.6689C17.9034 19.6989 20.5358 16.686 20.9434 13H17.1084ZM8.89648 13C9.10119 15.6986 10.1355 18.3457 12 20.5273C13.8645 18.3457 14.8988 15.6986 15.1035 13H8.89648ZM9.58105 3.33008C6.09599 4.30036 3.46416 7.31426 3.05664 11H6.8916C7.06915 8.30118 7.96439 5.64004 9.58105 3.33008ZM12 3.47168C10.1352 5.65344 9.10121 8.30113 8.89648 11H15.1035C14.8988 8.30113 13.8648 5.65344 12 3.47168ZM14.418 3.33008C16.0348 5.64015 16.9308 8.301 17.1084 11H20.9434C20.5358 7.31394 17.9035 4.30009 14.418 3.33008Z" fill="black"/>
</svg>
