<svg width="24" height="24" viewBox="0 0 24 24" fill="none" xmlns="http://www.w3.org/2000/svg">
<path fill-rule="evenodd" clip-rule="evenodd" d="M22 12C22 17.5228 17.5228 22 12 22C6.47715 22 2 17.5228 2 12C2 6.47715 6.47715 2 12 2C17.5228 2 22 6.47715 22 12ZM19.9381 13C19.5142 16.3991 16.958 19.1359 13.6502 19.8296L17.4444 13H19.9381ZM12 19.2L8.55556 13H15.4444L12 19.2ZM10.3498 19.8296C7.04204 19.1359 4.48575 16.3991 4.06189 13H6.55556L10.3498 19.8296ZM8.55556 11L12 4.8L15.4444 11H8.55556ZM10.3498 4.17039L6.55556 11H4.06189C4.48575 7.60091 7.04204 4.86405 10.3498 4.17039ZM13.6502 4.17039C16.958 4.86405 19.5142 7.60091 19.9381 11H17.4444L13.6502 4.17039Z" fill="black"/>
</svg>
