<svg width="24" height="24" viewBox="0 0 24 24" fill="none" xmlns="http://www.w3.org/2000/svg">
<path fill-rule="evenodd" clip-rule="evenodd" d="M3 3H11V11H3V3ZM6 7C6 6.44772 6.44772 6 7 6C7.55228 6 8 6.44772 8 7C8 7.55228 7.55228 8 7 8C6.44772 8 6 7.55228 6 7Z" fill="black"/>
<path fill-rule="evenodd" clip-rule="evenodd" d="M21 3H13V11H21V3ZM17 6C16.4477 6 16 6.44772 16 7C16 7.55228 16.4477 8 17 8C17.5523 8 18 7.55228 18 7C18 6.44772 17.5523 6 17 6Z" fill="black"/>
<path fill-rule="evenodd" clip-rule="evenodd" d="M3 13V21H11V13H3ZM7 16C6.44772 16 6 16.4477 6 17C6 17.5523 6.44772 18 7 18C7.55228 18 8 17.5523 8 17C8 16.4477 7.55228 16 7 16Z" fill="black"/>
<path fill-rule="evenodd" clip-rule="evenodd" d="M13 21V13H21V21H13ZM16 17C16 16.4477 16.4477 16 17 16C17.5523 16 18 16.4477 18 17C18 17.5523 17.5523 18 17 18C16.4477 18 16 17.5523 16 17Z" fill="black"/>
</svg>
