<svg width="24" height="24" viewBox="0 0 24 24" fill="none" xmlns="http://www.w3.org/2000/svg">
<path fill-rule="evenodd" clip-rule="evenodd" d="M11.9971 1L22.9941 12L11.9971 23L1 12L11.9971 1ZM12 7C11.3435 7 10.6935 7.1296 10.0869 7.38086C9.48035 7.63216 8.92911 8.00053 8.46484 8.46484C8.00063 8.92915 7.63213 9.48029 7.38086 10.0869C7.12959 10.6937 7 11.3442 7 12.001C7 12.6577 7.12959 13.3083 7.38086 13.915C7.63213 14.5217 8.00064 15.0728 8.46484 15.5371C8.92911 16.0014 9.48035 16.3698 10.0869 16.6211C10.6935 16.8724 11.3435 17.002 12 17.002V7Z" fill="black"/>
</svg>
