<svg width="24" height="24" viewBox="0 0 24 24" fill="none" xmlns="http://www.w3.org/2000/svg">
<path fill-rule="evenodd" clip-rule="evenodd" d="M12 2C17.5228 2 22 6.47715 22 12C22 17.5228 17.5228 22 12 22C6.47715 22 2 17.5228 2 12C2 6.47715 6.47715 2 12 2ZM13.8848 8.4707C13.3232 8.17024 12.6814 8 12 8C11.3186 8 10.6768 8.17024 10.1152 8.4707L7.46289 6.5L6.5 7.46289L8.4707 10.1152C8.17024 10.6768 8 11.3186 8 12C8 12.6814 8.17024 13.3232 8.4707 13.8848L6.5 16.5371L7.46289 17.5L10.1152 15.5293C10.6768 15.8298 11.3186 16 12 16C12.6814 16 13.3232 15.8298 13.8848 15.5293L16.5371 17.5L17.5 16.5371L15.5293 13.8848C15.8298 13.3232 16 12.6814 16 12C16 11.3186 15.8298 10.6768 15.5293 10.1152L17.5 7.46289L16.5371 6.5L13.8848 8.4707Z" fill="black"/>
</svg>
