<svg width="24" height="24" viewBox="0 0 24 24" fill="none" xmlns="http://www.w3.org/2000/svg">
<path fill-rule="evenodd" clip-rule="evenodd" d="M12 22C17.5228 22 22 17.5228 22 12C22 6.47715 17.5228 2 12 2C6.47715 2 2 6.47715 2 12C2 17.5228 6.47715 22 12 22ZM12 16C12.6814 16 13.323 15.8296 13.8845 15.5292L16.5375 17.5L17.5 16.5375L15.5292 13.8845C15.8296 13.323 16 12.6814 16 12C16 11.3186 15.8296 10.677 15.5292 10.1155L17.5 7.4625L16.5375 6.5L13.8845 8.47084C13.323 8.17037 12.6814 8 12 8C11.3186 8 10.677 8.17037 10.1155 8.47084L7.4625 6.5L6.5 7.4625L8.47084 10.1155C8.17037 10.677 8 11.3186 8 12C8 12.6814 8.17037 13.323 8.47084 13.8845L6.5 16.5375L7.4625 17.5L10.1155 15.5292C10.677 15.8296 11.3186 16 12 16Z" fill="black"/>
</svg>
