<svg width="24" height="24" viewBox="0 0 24 24" fill="none" xmlns="http://www.w3.org/2000/svg">
<path d="M5 19C4.45 19 3.97917 18.8042 3.5875 18.4125C3.19583 18.0208 3 17.55 3 17V7C3 6.45 3.19583 5.97917 3.5875 5.5875C3.97917 5.19583 4.45 5 5 5H6.325C6.875 5 7.34583 5.19583 7.7375 5.5875C8.12917 5.97917 8.325 6.45 8.325 7V17C8.325 17.55 8.12917 18.0208 7.7375 18.4125C7.34583 18.8042 6.875 19 6.325 19H5ZM11.325 19C10.775 19 10.3042 18.8042 9.9125 18.4125C9.52083 18.0208 9.325 17.55 9.325 17V7C9.325 6.45 9.52083 5.97917 9.9125 5.5875C10.3042 5.19583 10.775 5 11.325 5H12.65C13.2 5 13.6708 5.19583 14.0625 5.5875C14.4542 5.97917 14.65 6.45 14.65 7V17C14.65 17.55 14.4542 18.0208 14.0625 18.4125C13.6708 18.8042 13.2 19 12.65 19H11.325ZM17.65 19C17.1 19 16.6292 18.8042 16.2375 18.4125C15.8458 18.0208 15.65 17.55 15.65 17V7C15.65 6.45 15.8458 5.97917 16.2375 5.5875C16.6292 5.19583 17.1 5 17.65 5H18.975C19.525 5 19.9958 5.19583 20.3875 5.5875C20.7792 5.97917 20.975 6.45 20.975 7V17C20.975 17.55 20.7792 18.0208 20.3875 18.4125C19.9958 18.8042 19.525 19 18.975 19H17.65Z" fill="black"/>
</svg>
