<svg width="24" height="24" viewBox="0 0 24 24" fill="none" xmlns="http://www.w3.org/2000/svg">
<path d="M17.1194 13.6572H14.2622V10.7838H17.1194V13.6572Z" fill="black"/>
<path d="M9.8871 13.6525H7.01275V10.7808H9.8871V13.6525Z" fill="black"/>
<path fill-rule="evenodd" clip-rule="evenodd" d="M12.057 1.5C14.2067 1.50034 16.0196 2.94158 16.5827 4.91046L16.6298 5.07115C17.1129 6.69079 17.5443 7.04503 19.2845 7.37456L19.2843 7.37468C21.4655 7.78527 23.1157 9.70011 23.1157 12.0006C23.1157 14.3175 21.4419 16.2435 19.2375 16.6353C17.4848 16.9723 17.0837 17.3465 16.5858 19.079C16.0263 21.0528 14.2116 22.4988 12.0589 22.5H12.057C9.90417 22.4989 8.08937 21.0528 7.52986 19.079C7.03188 17.3462 6.63073 16.9722 4.87748 16.6352C2.67351 16.243 1.00004 14.3173 1 12.0006C1.00002 9.70014 2.65026 7.7853 4.83145 7.37468L4.83123 7.37456C6.57139 7.04503 7.00275 6.69076 7.48587 5.07115L7.53291 4.91046C8.09593 2.94211 9.90805 1.50112 12.057 1.5ZM8.45077 9.02563C6.68692 9.02563 5.25697 10.4542 5.25697 12.2164C5.257 13.9785 6.68694 15.4071 8.45077 15.4071C9.95155 15.4071 11.2104 14.3727 11.5525 12.9788H12.6071C12.9457 14.3757 14.1978 15.4127 15.6911 15.4128C17.4443 15.4128 18.8656 13.9833 18.8657 12.2201C18.8657 10.4568 17.4444 9.02744 15.6911 9.02744C14.199 9.02747 12.9476 10.0628 12.6079 11.4581H11.5534C11.2128 10.062 9.95303 9.02565 8.45077 9.02563Z" fill="black"/>
</svg>
