<svg width="24" height="24" viewBox="0 0 24 24" fill="none" xmlns="http://www.w3.org/2000/svg">
<path d="M7 11C7 11.6566 7.12933 12.3068 7.3806 12.9134C7.63188 13.52 8.00017 14.0712 8.46447 14.5355C8.92876 14.9998 9.47995 15.3681 10.0866 15.6194C10.6932 15.8707 11.3434 16 12 16C12.6566 16 13.3068 15.8707 13.9134 15.6194C14.52 15.3681 15.0712 14.9998 15.5355 14.5355C15.9998 14.0712 16.3681 13.52 16.6194 12.9134C16.8707 12.3068 17 11.6566 17 11H19C19 11.9193 18.8189 12.8295 18.4672 13.6788C18.1154 14.5281 17.5998 15.2997 16.9497 15.9497C16.2997 16.5998 15.5281 17.1154 14.6788 17.4672C14.1393 17.6906 13.5753 17.8452 13 17.9282V21H11V17.9282C10.4247 17.8452 9.86065 17.6906 9.32122 17.4672C8.47194 17.1154 7.70026 16.5998 7.05025 15.9497C6.40024 15.2997 5.88463 14.5281 5.53284 13.6788C5.18106 12.8295 5 11.9193 5 11H7Z" fill="black"/>
<path d="M9 2H15V6H14V7H15V9H14V10H15V13H9V10H12V9H9V7H12V6H9V2Z" fill="black"/>
</svg>
