<svg width="24" height="24" viewBox="0 0 24 24" fill="none" xmlns="http://www.w3.org/2000/svg">
<path d="M16 5.75L12 2L8 5.75L8.66667 7L11 5.6875V10H13V5.6875L15.3333 7L16 5.75Z" fill="black"/>
<path d="M8.66667 17L8 18.25L12 22L16 18.25L15.3333 17L13 18.3125V14H11V18.3125L8.66667 17Z" fill="black"/>
<path d="M17 8.66667L18.25 8L22 12L18.25 16L17 15.3333L18.3125 13H14V11H18.3125L17 8.66667Z" fill="black"/>
<path d="M5.75 8L2 12L5.75 16L7 15.3333L5.6875 13H10V11H5.6875L7 8.66667L5.75 8Z" fill="black"/>
</svg>
