<svg width="24" height="24" viewBox="0 0 24 24" fill="none" xmlns="http://www.w3.org/2000/svg">
<path fill-rule="evenodd" clip-rule="evenodd" d="M19.1569 12C21.122 15.2784 21.566 18.434 20 20C18.434 21.566 15.2784 21.122 12 19.157C8.72152 21.122 5.56593 21.566 3.99994 20C2.43395 18.434 2.87794 15.2784 4.84299 12C2.87799 8.72153 2.43402 5.56598 3.99999 4C5.56597 2.43403 8.72154 2.878 12 4.84301C15.2784 2.878 18.434 2.43404 19.9999 4.00001C21.5659 5.56598 21.1219 8.72153 19.1569 12ZM17.8967 13.8444C18.1859 14.4049 18.4168 14.9477 18.5879 15.4609C19.2366 17.4069 18.8661 18.3055 18.5858 18.5858C18.3054 18.8661 17.4069 19.2366 15.4609 18.5879C14.9477 18.4168 14.4049 18.1859 13.8444 17.8968C14.5759 17.3341 15.2999 16.7 15.9999 16C16.7 15.3 17.3341 14.576 17.8967 13.8444ZM16.7717 12C16.1642 12.8632 15.4337 13.7378 14.5857 14.5858C13.7377 15.4338 12.8632 16.1642 12 16.7717C11.1367 16.1642 10.2622 15.4338 9.41421 14.5858C8.56619 13.7378 7.83577 12.8632 7.22825 12C7.83576 11.1367 8.56616 10.2622 9.41415 9.41422C10.2622 8.56621 11.1367 7.83579 12 7.22827C12.8632 7.83579 13.7378 8.56621 14.5858 9.41422C15.4338 10.2622 16.1642 11.1367 16.7717 12ZM13.8444 6.10322C14.4049 5.81409 14.9476 5.58316 15.4608 5.4121C17.4069 4.76341 18.3054 5.1339 18.5857 5.41422C18.866 5.69455 19.2365 6.59306 18.5879 8.53913C18.4168 9.05233 18.1859 9.59505 17.8967 10.1556C17.3341 9.424 16.7 8.70002 16 8C15.3 7.29996 14.576 6.66589 13.8444 6.10322ZM10.1556 6.10322C9.59505 5.81408 9.05231 5.58316 8.53911 5.41209C6.59304 4.7634 5.69453 5.13389 5.41421 5.41422C5.13388 5.69454 4.76339 6.59305 5.41208 8.53912C5.58315 9.05232 5.81407 9.59506 6.10321 10.1556C6.66586 9.424 7.29992 8.70003 7.99994 8.00001C8.69998 7.29997 9.42398 6.66589 10.1556 6.10322ZM6.1032 13.8444C5.81404 14.4049 5.5831 14.9477 5.41203 15.4609C4.76334 17.407 5.13383 18.3055 5.41416 18.5858C5.69448 18.8661 6.59299 19.2366 8.53906 18.5879C9.05228 18.4168 9.59504 18.1859 10.1556 17.8968C9.424 17.3341 8.70002 16.7 7.99999 16C7.29995 15.3 6.66586 14.576 6.1032 13.8444Z" fill="black"/>
</svg>
