<svg width="24" height="24" viewBox="0 0 24 24" fill="none" xmlns="http://www.w3.org/2000/svg">
<path d="M11.2249 10.525C11.5749 10.525 11.8707 10.4042 12.1124 10.1625C12.3541 9.92083 12.4749 9.625 12.4749 9.275C12.4749 8.925 12.3541 8.62917 12.1124 8.3875C11.8707 8.14583 11.5749 8.025 11.2249 8.025C10.8749 8.025 10.5791 8.14583 10.3374 8.3875C10.0957 8.62917 9.9749 8.925 9.9749 9.275C9.9749 9.625 10.0957 9.92083 10.3374 10.1625C10.5791 10.4042 10.8749 10.525 11.2249 10.525ZM20.5499 22C19.8499 22 18.9082 21.7083 17.7249 21.125C16.5416 20.5417 15.2749 19.75 13.9249 18.75C13.6082 18.8333 13.2874 18.8958 12.9624 18.9375C12.6374 18.9792 12.3082 19 11.9749 19C10.0249 19 8.3749 18.325 7.0249 16.975C5.6749 15.625 4.9999 13.975 4.9999 12.025C4.9999 11.6917 5.0249 11.3583 5.0749 11.025C5.1249 10.6917 5.19157 10.3667 5.2749 10.05C4.29157 8.7 3.50407 7.4375 2.9124 6.2625C2.32074 5.0875 2.0249 4.15 2.0249 3.45C2.0249 3 2.1499 2.64583 2.3999 2.3875C2.6499 2.12917 2.99157 2 3.4249 2C3.85824 2 4.42074 2.15 5.1124 2.45C5.80407 2.75 6.75824 3.25833 7.9749 3.975C7.6249 4.15833 7.2999 4.35 6.9999 4.55C6.6999 4.75 6.40824 4.96667 6.1249 5.2C5.80824 5.01667 5.4999 4.85833 5.1999 4.725C4.8999 4.59167 4.58324 4.45 4.2499 4.3C4.5499 4.93333 4.87074 5.55 5.2124 6.15C5.55407 6.75 5.91657 7.34167 6.2999 7.925C6.93324 7.025 7.74157 6.31667 8.7249 5.8C9.70824 5.28333 10.7916 5.025 11.9749 5.025C13.9249 5.025 15.5791 5.70417 16.9374 7.0625C18.2957 8.42083 18.9749 10.075 18.9749 12.025C18.9749 13.2083 18.7124 14.2917 18.1874 15.275C17.6624 16.2583 16.9499 17.0667 16.0499 17.7C16.6332 18.0833 17.2291 18.45 17.8374 18.8C18.4457 19.15 19.0666 19.4667 19.6999 19.75C19.5666 19.4333 19.4291 19.125 19.2874 18.825C19.1457 18.525 18.9832 18.2167 18.7999 17.9C19.0499 17.6167 19.2749 17.3167 19.4749 17C19.6749 16.6833 19.8582 16.3583 20.0249 16.025C20.7916 17.325 21.3124 18.2958 21.5874 18.9375C21.8624 19.5792 21.9999 20.1167 21.9999 20.55C21.9999 21.0333 21.8666 21.3958 21.5999 21.6375C21.3332 21.8792 20.9832 22 20.5499 22ZM13.7249 15.025C14.0082 15.025 14.2457 14.9292 14.4374 14.7375C14.6291 14.5458 14.7249 14.3083 14.7249 14.025C14.7249 13.7417 14.6291 13.5042 14.4374 13.3125C14.2457 13.1208 14.0082 13.025 13.7249 13.025C13.4416 13.025 13.2041 13.1208 13.0124 13.3125C12.8207 13.5042 12.7249 13.7417 12.7249 14.025C12.7249 14.3083 12.8207 14.5458 13.0124 14.7375C13.2041 14.9292 13.4416 15.025 13.7249 15.025ZM14.9749 11.525C15.1916 11.525 15.3707 11.4542 15.5124 11.3125C15.6541 11.1708 15.7249 10.9917 15.7249 10.775C15.7249 10.5583 15.6541 10.3792 15.5124 10.2375C15.3707 10.0958 15.1916 10.025 14.9749 10.025C14.7582 10.025 14.5791 10.0958 14.4374 10.2375C14.2957 10.3792 14.2249 10.5583 14.2249 10.775C14.2249 10.9917 14.2957 11.1708 14.4374 11.3125C14.5791 11.4542 14.7582 11.525 14.9749 11.525Z" fill="black"/>
</svg>
