<svg width="24" height="24" viewBox="0 0 24 24" fill="none" xmlns="http://www.w3.org/2000/svg">
<path fill-rule="evenodd" clip-rule="evenodd" d="M11.9996 3.85866C15.4936 1.78302 18.8255 1.34573 20.4976 3.05788C22.1448 4.7446 21.754 8.08038 19.8043 11.5999C22.1521 15.4061 22.739 19.1284 20.9673 20.9426C19.2205 22.7314 15.6619 22.1724 11.9996 19.8518C8.33747 22.1721 4.77961 22.7312 3.03277 20.9426C1.26115 19.1285 1.84725 15.406 4.19488 11.5999C2.24541 8.0807 1.85475 4.74464 3.50152 3.05788C5.17349 1.34574 8.50571 1.78327 11.9996 3.85866ZM5.44292 13.5755C5.01816 14.359 4.68685 15.1172 4.45562 15.8274C3.74284 18.0171 4.13039 19.0864 4.48784 19.4524C4.84531 19.8184 5.88893 20.2153 8.02691 19.4856C8.69351 19.2581 9.40359 18.9354 10.1373 18.5247C9.36736 17.9124 8.60597 17.2259 7.8687 16.471C6.95346 15.5337 6.14135 14.5581 5.44292 13.5755ZM18.5562 13.5745C17.8577 14.5572 17.0467 15.5336 16.1314 16.471C15.3939 17.2261 14.632 17.9123 13.8619 18.5247C14.5956 18.9356 15.3055 19.258 15.9722 19.4856C18.1098 20.2152 19.1534 19.8183 19.5113 19.4524C19.8687 19.0864 20.2573 18.0171 19.5445 15.8274C19.3132 15.1169 18.9813 14.3585 18.5562 13.5745ZM11.9996 6.34694C10.9521 7.07135 9.8842 7.96392 8.85406 9.01881C8.01081 9.88231 7.27311 10.7713 6.64507 11.6536C7.36455 12.7602 8.25959 13.891 9.32378 14.9807C10.2004 15.8784 11.1044 16.6583 11.9996 17.3176C12.8949 16.6583 13.7995 15.8786 14.6763 14.9807C15.7404 13.8911 16.6346 12.7601 17.3541 11.6536C16.7261 10.7714 15.9882 9.8822 15.1451 9.01881C14.1149 7.96391 13.047 7.07133 11.9996 6.34694ZM8.49663 4.51491C6.35846 3.78506 5.3151 4.1821 4.95757 4.54811C4.60013 4.91414 4.21164 5.9825 4.92437 8.17213C5.08105 8.65343 5.28471 9.15648 5.53081 9.67506C6.09375 8.94725 6.71718 8.22676 7.39898 7.52858C8.25847 6.64845 9.15208 5.86289 10.0523 5.17799C9.51507 4.90602 8.99363 4.68458 8.49663 4.51491ZM19.0425 4.54811C18.6851 4.18207 17.6418 3.785 15.5035 4.51491C15.0062 4.68465 14.4843 4.90584 13.9468 5.17799C14.8472 5.86299 15.7415 6.64826 16.6011 7.52858C17.2828 8.22663 17.9055 8.94739 18.4683 9.67506C18.7145 9.15642 18.9181 8.65349 19.0748 8.17213C19.7875 5.98249 19.4 4.91418 19.0425 4.54811Z" fill="black"/>
</svg>
