<svg width="24" height="24" viewBox="0 0 24 24" fill="none" xmlns="http://www.w3.org/2000/svg">
<path fill-rule="evenodd" clip-rule="evenodd" d="M10.1611 2.19245C12.1278 1.8066 14.1667 2.00394 16.0194 2.76082C17.8721 3.51769 19.4554 4.79993 20.5695 6.44442C21.6836 8.08897 23.3883 12.6668 20.0087 16.0001H12.0047V22.0001C9.99952 22.0001 8.17322 21.4133 6.50593 20.3146C4.83876 19.2158 3.53904 17.6543 2.77166 15.8273C2.00425 14 1.80398 11.9887 2.1952 10.0489C2.58645 8.1092 3.55209 6.32726 4.97001 4.92879C6.38792 3.53041 8.19441 2.57831 10.1611 2.19245ZM5.00128 10.0001V13.0001H7.00227L8.00276 10.0001H5.00128ZM16.0067 10.0001L17.0072 13.0001H19.0082V10.0001H16.0067ZM8.00276 5.00008V8.00009H11.0042L10.0037 5.00008H8.00276ZM13.0052 5.00008L14.0057 8.00009H16.0067V5.00008H13.0052Z" fill="black"/>
</svg>
