<svg width="24" height="24" viewBox="0 0 24 24" fill="none" xmlns="http://www.w3.org/2000/svg">
<path fill-rule="evenodd" clip-rule="evenodd" d="M10.1611 2.19251C12.1278 1.80676 14.167 2.00409 16.0195 2.76087C17.872 3.51775 19.4553 4.8001 20.5693 6.44446C21.6834 8.08901 23.3881 12.6669 20.0088 16.0001H18.1211L10.1211 8.00012H11.0039L10.0039 5.00012H8.00293V5.88196L6.09277 3.9718C7.29328 3.0924 8.68244 2.48266 10.1611 2.19251ZM17.0068 13.0001H19.0078V10.0001H16.0068L17.0068 13.0001ZM14.0059 8.00012H16.0068V5.00012H13.0049L14.0059 8.00012Z" fill="black"/>
<path fill-rule="evenodd" clip-rule="evenodd" d="M13.293 16.0001L18.7069 21.4141L20.121 20L3.41406 3.29309L2 4.70716L3.7207 6.42786C2.97871 7.51864 2.45769 8.74825 2.19531 10.049C1.80412 11.9887 2.0041 14 2.77148 15.8273C3.53884 17.6543 4.83876 19.2158 6.50586 20.3146C8.17306 21.4132 9.9998 22 12.0049 22.0001V16.0001H13.293ZM7.00195 13.0001H5.00098V10.0001H8.00293L7.00195 13.0001Z" fill="black"/>
</svg>
