<svg width="24" height="24" viewBox="0 0 24 24" fill="none" xmlns="http://www.w3.org/2000/svg">
<path fill-rule="evenodd" clip-rule="evenodd" d="M10.0488 2.19251C11.9886 1.80667 13.9998 2.004 15.8271 2.76087C17.6542 3.51775 19.2156 4.80005 20.3144 6.44446C21.4132 8.08894 21.9999 10.0223 21.9999 12.0001H11.9999V22.0001C10.0222 22.0001 8.08876 21.4134 6.44428 20.3146C4.79987 19.2158 3.51757 17.6544 2.76069 15.8273C2.00381 14 1.80648 11.9888 2.19233 10.049C2.57821 8.10925 3.53019 6.3273 4.92865 4.92884C6.32712 3.53038 8.10907 2.5784 10.0488 2.19251ZM7.99994 14.0001C6.89537 14.0001 5.99994 14.8956 5.99994 16.0001C6 17.1046 6.89541 18.0001 7.99994 18.0001C9.10443 18.0001 9.99989 17.1046 9.99994 16.0001C9.99994 14.8956 9.10447 14.0002 7.99994 14.0001ZM7.99994 6.00013C6.89537 6.00013 5.99994 6.89556 5.99994 8.00013C6 9.10465 6.89541 10.0001 7.99994 10.0001C9.10443 10.0001 9.99989 9.10462 9.99994 8.00013C9.99994 6.89559 9.10447 6.00018 7.99994 6.00013ZM15.9999 6.00013C14.8954 6.00013 13.9999 6.89556 13.9999 8.00013C14 9.10465 14.8954 10.0001 15.9999 10.0001C17.1044 10.0001 17.9999 9.10462 17.9999 8.00013C17.9999 6.89559 17.1045 6.00018 15.9999 6.00013Z" fill="black"/>
</svg>
