<svg width="24" height="24" viewBox="0 0 24 24" fill="none" xmlns="http://www.w3.org/2000/svg">
<path fill-rule="evenodd" clip-rule="evenodd" d="M21.4141 22.0001H18.5859L12 15.4142V22.0001C10.0223 22.0001 8.08878 21.4133 6.44434 20.3146C4.79996 19.2158 3.51763 17.6544 2.76074 15.8273C2.00388 14 1.80656 11.9887 2.19238 10.0489C2.41865 8.91164 2.84007 7.82895 3.43164 6.84581L0.585938 4.0001H3.41406L21.4141 22.0001ZM8 14.0001C6.89545 14.0001 6.00003 14.8956 6 16.0001C6.00011 17.1046 6.8955 18.0001 8 18.0001C9.10437 18 9.99989 17.1045 10 16.0001C9.99997 14.8957 9.10442 14.0003 8 14.0001Z" fill="black"/>
<path fill-rule="evenodd" clip-rule="evenodd" d="M10.0488 2.19249C11.9886 1.80669 14 2.00399 15.8271 2.76084C17.6542 3.51774 19.2157 4.80008 20.3145 6.44444C21.4132 8.08888 22 10.0224 22 12.0001H13.4141L9.92969 8.51573C9.97358 8.35104 9.99998 8.17861 10 8.0001C9.99997 6.89565 9.10442 6.00025 8 6.0001C7.82124 6.0001 7.64829 6.02544 7.4834 6.06944L5.67188 4.25792C6.93596 3.22487 8.43773 2.513 10.0488 2.19249ZM16 6.0001C14.8955 6.0001 14 6.89556 14 8.0001C14.0001 9.10458 14.8955 10.0001 16 10.0001C17.1044 9.99995 17.9999 9.10449 18 8.0001C18 6.89565 17.1044 6.00025 16 6.0001Z" fill="black"/>
</svg>
