<svg width="24" height="24" viewBox="0 0 24 24" fill="none" xmlns="http://www.w3.org/2000/svg">
<path d="M12 9C13.6569 9 15 7.65685 15 6C15 4.34315 13.6569 3 12 3C10.3431 3 9 4.34315 9 6C9 7.65685 10.3431 9 12 9Z" fill="black"/>
<path d="M5 16C6.65685 16 8 14.6569 8 13C8 11.3431 6.65685 10 5 10C3.34315 10 2 11.3431 2 13C2 14.6569 3.34315 16 5 16Z" fill="black"/>
<path d="M22 10C22 11.6569 20.6569 13 19 13C17.3431 13 16 11.6569 16 10C16 8.34315 17.3431 7 19 7C20.6569 7 22 8.34315 22 10Z" fill="black"/>
<path d="M8 21L7 17H3L2 21H8Z" fill="black"/>
<path d="M16 21L14 10H10L8 21H16Z" fill="black"/>
<path d="M16 21L17 14H21L22 21H16Z" fill="black"/>
</svg>
