<svg width="24" height="24" viewBox="0 0 24 24" fill="none" xmlns="http://www.w3.org/2000/svg">
<path d="M13 17C15.7614 17 18 19.2386 18 22H6C6 19.2386 8.23858 17 11 17H13Z" fill="black"/>
<path d="M12 10C13.6569 10 15 11.3431 15 13C15 14.6569 13.6569 16 12 16C10.3431 16 9 14.6569 9 13C9 11.3431 10.3431 10 12 10Z" fill="black"/>
<path d="M6 9V14H1C1 11.2386 3.23858 9 6 9Z" fill="black"/>
<path d="M18 9C20.7614 9 23 11.2386 23 14H18V9Z" fill="black"/>
<path d="M6 2C7.65685 2 9 3.34315 9 5C9 6.65685 7.65685 8 6 8C4.34315 8 3 6.65685 3 5C3 3.34315 4.34315 2 6 2Z" fill="black"/>
<path d="M18 2C19.6569 2 21 3.34315 21 5C21 6.65685 19.6569 8 18 8C16.3431 8 15 6.65685 15 5C15 3.34315 16.3431 2 18 2Z" fill="black"/>
</svg>
