<svg width="24" height="24" viewBox="0 0 24 24" fill="none" xmlns="http://www.w3.org/2000/svg">
<path fill-rule="evenodd" clip-rule="evenodd" d="M12 2C14.1209 2.00253 16.1546 2.83079 17.6543 4.30371C19.154 5.77666 19.9974 7.77436 20 9.85742C20.0025 11.5588 19.437 13.2141 18.3897 14.5693L18.3877 14.5713C18.3796 14.5817 18.1703 14.852 18.1377 14.8906L12 22L5.86524 14.8945C5.83061 14.8542 5.61748 14.578 5.61231 14.5713C4.56425 13.2155 3.99757 11.5597 4.00001 9.85742C4.00259 7.77436 4.84598 5.77666 6.34571 4.30371C7.84544 2.83079 9.87909 2.00253 12 2ZM12 7C10.3432 7 9.00001 8.34315 9.00001 10C9.00001 11.6569 10.3432 13 12 13C13.6569 13 15 11.6569 15 10C15 8.34315 13.6569 7 12 7Z" fill="black"/>
</svg>
