<svg width="24" height="24" viewBox="0 0 24 24" fill="none" xmlns="http://www.w3.org/2000/svg">
<path fill-rule="evenodd" clip-rule="evenodd" d="M3 3H11V11H3V3ZM6 6H8V8H6V6Z" fill="black"/>
<path d="M13 13H15V15H13V13Z" fill="black"/>
<path fill-rule="evenodd" clip-rule="evenodd" d="M17 15H15V17H13V19H15V21H17V19H19V21H21V19H19V17H21V15H19V13H17V15ZM17 17H15V19H17V17ZM17 17V15H19V17H17Z" fill="black"/>
<path fill-rule="evenodd" clip-rule="evenodd" d="M21 3H13V11H21V3ZM18 6H16V8H18V6Z" fill="black"/>
<path fill-rule="evenodd" clip-rule="evenodd" d="M3 13H11V21H3V13ZM6 16H8V18H6V16Z" fill="black"/>
</svg>
