<svg width="24" height="24" viewBox="0 0 24 24" fill="none" xmlns="http://www.w3.org/2000/svg">
<path fill-rule="evenodd" clip-rule="evenodd" d="M23 23H1V1H23V23ZM10.4365 18H12.9961V15.4717H10.4365V18ZM12.0518 6.63965C10.916 6.63972 9.97163 6.92761 9.21973 7.51953C8.4678 8.09551 8.02022 9.00798 7.9082 10.2559H10.292C10.42 9.15195 11.0766 8.68848 12.1006 8.68848C13.1401 8.68858 13.7322 9.11995 13.7324 9.93555V10C13.7324 10.368 13.6201 10.6565 13.4121 10.8965C13.2041 11.1364 12.8199 11.4239 12.2441 11.7598C10.9323 12.5277 10.5167 12.8959 10.5166 13.9355V14.1924H12.9482C12.9962 13.6964 13.1721 13.4878 13.876 13.0879C15.508 12.1599 16.1006 11.44 16.1006 9.79199V9.66406C16.1006 7.96811 14.7403 6.63973 12.1484 6.63965H12.0518Z" fill="black"/>
</svg>
