<svg width="24" height="24" viewBox="0 0 24 24" fill="none" xmlns="http://www.w3.org/2000/svg">
<path d="M7.51688 10.7646L4.20535 16.5C3.82068 17.1666 4.30197 17.9998 5.07156 18H9.40164V20H5.07156C2.7623 19.9998 1.31925 17.4999 2.47391 15.5L5.78445 9.76465L7.51688 10.7646ZM21.5266 15.5C22.6812 17.5 21.2374 20 18.928 20H12.0003V18H18.928C19.6978 18 20.1791 17.1667 19.7942 16.5L18.2786 13.875L20.011 12.875L21.5266 15.5ZM9.40164 3.5C10.5563 1.50002 13.4432 1.50006 14.5979 3.5L18.0618 9.5L16.3304 10.5L12.8665 4.5C12.4816 3.83334 11.519 3.83337 11.1341 4.5L8.85379 8.44824L7.12234 7.44824L9.40164 3.5Z" fill="black"/>
<path d="M18.4641 12.4641L13 11L19.9282 7L18.4641 12.4641Z" fill="black"/>
<path d="M11 19L15 15L15 23L11 19Z" fill="black"/>
<path d="M7.46411 9L8.9282 14.4641L2 10.4641L7.46411 9Z" fill="black"/>
</svg>
