<svg width="24" height="24" viewBox="0 0 24 24" fill="none" xmlns="http://www.w3.org/2000/svg">
<path d="M11.75 1L8 5L11.75 9L13 8.33333L11.6919 6.00791C12.512 5.96576 13.3366 6.09217 14.1135 6.38456C15.2868 6.82617 16.2923 7.6242 16.9888 8.66658C17.6853 9.70896 18.0378 10.9433 17.9968 12.1963C17.9558 13.4493 17.5233 14.658 16.7601 15.6526C15.9969 16.6472 14.9414 17.3777 13.7417 17.7416C12.542 18.1056 11.2585 18.0846 10.0714 17.6816C8.88424 17.2786 7.85315 16.5139 7.12292 15.4949C6.39269 14.4758 6 13.2537 6 12L4 12C4 13.6716 4.52359 15.3011 5.49723 16.6598C6.47087 18.0185 7.84565 19.0381 9.42849 19.5754C11.0113 20.1127 12.7227 20.1407 14.3223 19.6555C15.9219 19.1703 17.3293 18.1962 18.3468 16.8701C19.3644 15.544 19.941 13.9324 19.9957 12.2618C20.0504 10.5911 19.5804 8.94528 18.6518 7.55544C17.7231 6.1656 16.3824 5.10155 14.818 4.51275C13.8121 4.13414 12.7461 3.96426 11.684 4.00624L13 1.66667L11.75 1Z" fill="black"/>
</svg>
