<svg width="24" height="24" viewBox="0 0 24 24" fill="none" xmlns="http://www.w3.org/2000/svg">
<path d="M12 2V5C13.3844 5 14.7376 5.41062 15.8887 6.17969C17.0398 6.94884 17.937 8.04223 18.4668 9.32129C18.9966 10.6003 19.1352 12.0075 18.8652 13.3652C18.5951 14.7231 17.9292 15.9712 16.9502 16.9502C15.9712 17.9292 14.7231 18.5951 13.3652 18.8652C12.0075 19.1352 10.6003 18.9966 9.32129 18.4668C8.04223 17.937 6.94884 17.0398 6.17969 15.8887C5.41062 14.7376 5 13.3844 5 12H7C7 12.9889 7.29337 13.9561 7.84277 14.7783C8.39217 15.6004 9.17342 16.2408 10.0869 16.6191C11.0005 16.9975 12.0057 17.0972 12.9756 16.9043C13.9455 16.7114 14.8359 16.2344 15.5352 15.5352C16.2344 14.8359 16.7114 13.9455 16.9043 12.9756C17.0972 12.0057 16.9975 11.0005 16.6191 10.0869C16.2408 9.17342 15.6004 8.39217 14.7783 7.84277C13.9561 7.29337 12.9889 7 12 7V10L7 6L12 2Z" fill="black"/>
</svg>
