<svg width="24" height="24" viewBox="0 0 24 24" fill="none" xmlns="http://www.w3.org/2000/svg">
<path fill-rule="evenodd" clip-rule="evenodd" d="M8.63853 8.91735L10.0597 7.49621C12.6481 4.90785 16.281 3.65023 19.9157 4.08432C20.3498 7.71899 19.0921 11.3519 16.5038 13.9402L15.0826 15.3614L8.63853 8.91735ZM16.6935 8.91738C16.6935 9.80711 15.9723 10.5284 15.0825 10.5284C14.1928 10.5284 13.4715 9.80711 13.4715 8.91738C13.4715 8.02764 14.1928 7.30637 15.0825 7.30637C15.9723 7.30637 16.6935 8.02764 16.6935 8.91738Z" fill="black"/>
<path d="M4.98414 8.53247C6.18507 7.81191 7.72229 8.00115 8.7126 8.99146L15.0086 15.2874C15.999 16.2778 16.1882 17.815 15.4676 19.0159L14.2772 21L3 9.72294L4.98414 8.53247Z" fill="black"/>
<path d="M9.30583 17.9161L9.44403 17.7779L6.22199 14.5559L6.08379 14.6941C4.625 16.1528 3.80546 18.1314 3.80546 20.1944C5.8685 20.1944 7.84704 19.3749 9.30583 17.9161Z" fill="black"/>
</svg>
