<svg width="24" height="24" viewBox="0 0 24 24" fill="none" xmlns="http://www.w3.org/2000/svg">
<path fill-rule="evenodd" clip-rule="evenodd" d="M9 2C8.08075 2 7.1705 2.18106 6.32122 2.53284C5.47194 2.88463 4.70026 3.40024 4.05025 4.05025C3.40024 4.70026 2.88463 5.47194 2.53284 6.32122C2.18106 7.17049 2 8.08075 2 9C2 9.91925 2.18106 10.8295 2.53284 11.6788C2.88463 12.5281 3.40024 13.2997 4.05025 13.9497C4.70026 14.5998 5.47194 15.1154 6.32122 15.4672C7.17049 15.8189 8.08075 16 9 16C9.91925 16 10.8295 15.8189 11.6788 15.4672C12.2496 15.2307 12.7854 14.9203 13.2727 14.5447L19 22L22 19L14.5479 13.2686C14.922 12.7823 15.2314 12.248 15.4672 11.6788C15.8189 10.8295 16 9.91925 16 9C16 8.08075 15.8189 7.1705 15.4672 6.32122C15.1154 5.47194 14.5998 4.70026 13.9497 4.05025C13.2997 3.40024 12.5281 2.88463 11.6788 2.53284C10.8295 2.18106 9.91925 2 9 2ZM7.08658 4.3806C7.69321 4.12933 8.34339 4 9 4C9.65661 4 10.3068 4.12933 10.9134 4.3806C11.52 4.63188 12.0712 5.00017 12.5355 5.46447C12.9998 5.92876 13.3681 6.47996 13.6194 7.08658C13.8707 7.69321 14 8.34339 14 9C14 9.65661 13.8707 10.3068 13.6194 10.9134C13.3681 11.52 12.9998 12.0712 12.5355 12.5355C12.0712 12.9998 11.52 13.3681 10.9134 13.6194C10.3068 13.8707 9.65661 14 9 14C8.34339 14 7.69321 13.8707 7.08658 13.6194C6.47995 13.3681 5.92876 12.9998 5.46447 12.5355C5.00017 12.0712 4.63188 11.52 4.3806 10.9134C4.12933 10.3068 4 9.65661 4 9C4 8.34339 4.12933 7.69321 4.3806 7.08658C4.63188 6.47995 5.00017 5.92876 5.46447 5.46447C5.92876 5.00017 6.47996 4.63188 7.08658 4.3806Z" fill="black"/>
</svg>
