<svg width="24" height="24" viewBox="0 0 24 24" fill="none" xmlns="http://www.w3.org/2000/svg">
<path d="M17 2C18.6569 2 20 3.34315 20 5C20 6.65685 18.6569 8 17 8C16.4111 8 15.8638 7.8273 15.4004 7.53418L7.96484 11.5381C7.98811 11.6886 8 11.8429 8 12C8 12.1564 7.98792 12.31 7.96484 12.46L15.4004 16.4639C15.8636 16.1711 16.4115 16 17 16C18.6569 16 20 17.3431 20 19C20 20.6569 18.6569 22 17 22C15.3431 22 14 20.6569 14 19C14 18.6725 14.0534 18.3575 14.1504 18.0625L7.0127 14.2188C6.4801 14.7022 5.77593 15 5 15C3.34315 15 2 13.6569 2 12C2 10.3431 3.34315 9 5 9C5.77546 9 6.48022 9.2964 7.0127 9.7793L14.1504 5.93555C14.0538 5.64101 14 5.32685 14 5C14 3.34315 15.3431 2 17 2Z" fill="black"/>
</svg>
