<svg width="24" height="24" viewBox="0 0 24 24" fill="none" xmlns="http://www.w3.org/2000/svg">
<path d="M8 18C9.10457 18 10 18.8954 10 20C10 21.1046 9.10457 22 8 22C6.89543 22 6 21.1046 6 20C6 18.8954 6.89543 18 8 18Z" fill="black"/>
<path d="M17 18C18.1046 18 19 18.8954 19 20C19 21.1046 18.1046 22 17 22C15.8954 22 15 21.1046 15 20C15 18.8954 15.8954 18 17 18Z" fill="black"/>
<path d="M5 2V4H22L18 13H9.20117L7.86816 15H19V17H7.86816C6.27105 16.9997 5.31828 15.2196 6.2041 13.8906L7.51855 11.918L4 4H2V2H5Z" fill="black"/>
</svg>
