<svg width="24" height="24" viewBox="0 0 24 24" fill="none" xmlns="http://www.w3.org/2000/svg">
<path d="M13 23H11V19H13V23Z" fill="black"/>
<path d="M6.34277 16.2422L7.75781 17.6572L4.92871 20.4854L3.51465 19.0713L6.34277 16.2422Z" fill="black"/>
<path d="M17.6572 16.2422L20.4854 19.0713L19.0713 20.4854L16.2422 17.6572L17.6572 16.2422Z" fill="black"/>
<path d="M12 6C15.3137 6 18 8.68629 18 12C18 15.3137 15.3137 18 12 18C8.68629 18 6 15.3137 6 12C6 8.68629 8.68629 6 12 6Z" fill="black"/>
<path d="M5 13H1V11H5V13Z" fill="black"/>
<path d="M23 13H19V11H23V13Z" fill="black"/>
<path d="M4.92871 3.51465L7.75781 6.34277L6.34277 7.75781L3.51465 4.92871L4.92871 3.51465Z" fill="black"/>
<path d="M19.0713 3.51465L20.4854 4.92871L17.6572 7.75781L16.2422 6.34277L19.0713 3.51465Z" fill="black"/>
<path d="M13 5H11V1H13V5Z" fill="black"/>
</svg>
