<svg width="24" height="24" viewBox="0 0 24 24" fill="none" xmlns="http://www.w3.org/2000/svg">
<path d="M11.5 5L11 1H13L12.5 5H11.5Z" fill="black"/>
<path d="M11 23L11.5 19H12.5L13 23H11Z" fill="black"/>
<path d="M19 12.5L23 13V11L19 11.5V12.5Z" fill="black"/>
<path d="M1 11L5 11.5V12.5L1 13V11Z" fill="black"/>
<path d="M19.0711 20.4853L20.4853 19.0711L17.3033 16.5962L16.5962 17.3033L19.0711 20.4853Z" fill="black"/>
<path d="M7.40381 6.6967L6.6967 7.40381L3.51472 4.92893L4.92893 3.51472L7.40381 6.6967Z" fill="black"/>
<path d="M20.4852 4.92893L19.071 3.51471L16.5961 6.69669L17.3032 7.4038L20.4852 4.92893Z" fill="black"/>
<path d="M6.69666 16.5962L7.40377 17.3033L4.9289 20.4853L3.51468 19.071L6.69666 16.5962Z" fill="black"/>
<path d="M12 18C15.3137 18 18 15.3137 18 12C18 8.68629 15.3137 6 12 6C8.68629 6 6 8.68629 6 12C6 15.3137 8.68629 18 12 18Z" fill="black"/>
</svg>
