<svg width="24" height="24" viewBox="0 0 24 24" fill="none" xmlns="http://www.w3.org/2000/svg">
<path d="M8 5L11.75 1L13 1.66667L11.684 4.00624C12.659 3.9677 13.638 4.10768 14.5715 4.42456C16.0698 4.93316 17.3836 5.87462 18.3468 7.12991C19.31 8.38519 19.8794 9.89791 19.9829 11.4768C20.0864 13.0556 19.7193 14.6297 18.9282 16L17.1962 15C17.7895 13.9723 18.0648 12.7917 17.9872 11.6076C17.9095 10.4234 17.4825 9.28889 16.7601 8.34743C16.0377 7.40597 15.0524 6.69987 13.9286 6.31842C13.2058 6.07306 12.4467 5.96912 11.692 6.00791L13 8.33333L11.75 9L8 5Z" fill="black"/>
<path d="M6.01285 12.3924C5.93524 11.2083 6.21051 10.0277 6.80385 9L5.0718 8C4.28068 9.37027 3.91365 10.9444 4.01713 12.5232C4.12062 14.1021 4.68996 15.6148 5.65318 16.8701C6.61639 18.1254 7.93021 19.0668 9.42849 19.5754C10.362 19.8923 11.341 20.0323 12.316 19.9938L11 22.3333L12.25 23L16 19L12.25 15L11 15.6667L12.3081 17.9921C11.5533 18.0309 10.7942 17.9269 10.0714 17.6816C8.94766 17.3001 7.96229 16.594 7.23988 15.6526C6.51747 14.7111 6.09046 13.5766 6.01285 12.3924Z" fill="black"/>
</svg>
