<svg width="24" height="24" viewBox="0 0 24 24" fill="none" xmlns="http://www.w3.org/2000/svg">
<path d="M7.9549 9.06152C7.41307 9.80739 7.08784 10.6884 7.01545 11.6074C6.94311 12.5265 7.12625 13.448 7.54475 14.2695C7.96337 15.0911 8.60131 15.7819 9.38752 16.2637C10.1736 16.7453 11.0779 17 11.9998 17V14L16.9998 18L11.9998 22V19C10.709 19 9.44323 18.6431 8.3426 17.9688C7.2419 17.2942 6.34859 16.328 5.76252 15.1777C5.1766 14.0277 4.92011 12.7379 5.02131 11.4512C5.12259 10.1643 5.57801 8.93011 6.33674 7.88574L7.9549 9.06152Z" fill="black"/>
<path d="M11.9998 2V5C13.2906 5 14.5564 5.35687 15.6571 6.03125C16.7578 6.70577 17.651 7.67203 18.2371 8.82227C18.8231 9.97233 19.0795 11.2621 18.9783 12.5488C18.8771 13.8357 18.4217 15.0699 17.6629 16.1143L16.0447 14.9385C16.5866 14.1926 16.9118 13.3116 16.9842 12.3926C17.0565 11.4734 16.8734 10.552 16.4549 9.73047C16.0363 8.90887 15.3983 8.21812 14.6121 7.73633C13.826 7.25468 12.9218 7 11.9998 7V10L6.99982 6L11.9998 2Z" fill="black"/>
</svg>
