<svg width="24" height="24" viewBox="0 0 24 24" fill="none" xmlns="http://www.w3.org/2000/svg">
<path d="M12 23L7 17H2V7H7L12 1V23Z" fill="black"/>
<path d="M13 3C15.3869 3 17.6764 3.94792 19.3643 5.63574C21.0521 7.32357 22 9.61305 22 12C22 14.3869 21.0521 16.6764 19.3643 18.3643C17.6764 20.0521 15.3869 21 13 21V19C14.8565 19 16.6374 18.2629 17.9502 16.9502C19.2629 15.6374 20 13.8565 20 12C20 10.1435 19.2629 8.36256 17.9502 7.0498C16.6374 5.73705 14.8565 5 13 5V3Z" fill="black"/>
<path d="M13 7C14.3261 7 15.5975 7.52716 16.5352 8.46484C17.4728 9.40253 18 10.6739 18 12C18 13.3261 17.4728 14.5975 16.5352 15.5352C15.5975 16.4728 14.3261 17 13 17V15C13.7956 15 14.5585 14.6837 15.1211 14.1211C15.6837 13.5585 16 12.7956 16 12C16 11.2044 15.6837 10.4415 15.1211 9.87891C14.5585 9.3163 13.7956 9 13 9V7Z" fill="black"/>
</svg>
