<svg width="24" height="24" viewBox="0 0 24 24" fill="none" xmlns="http://www.w3.org/2000/svg">
<path d="M3.41406 4L21.4141 22H18.5859L16.7588 20.1729C15.5906 20.7107 14.3109 21 13 21V19C13.7627 19 14.5119 18.8736 15.2217 18.6357L13.5547 16.9688C13.3714 16.9893 13.1863 17 13 17V16.4141L12 15.4141V23L7 17H2V7H3.58594L0.585938 4H3.41406Z" fill="black"/>
<path d="M13 3C15.3869 3 17.6764 3.94792 19.3643 5.63574C21.0521 7.32357 22 9.61305 22 12C22 14.2891 21.1256 16.4862 19.5654 18.1514L18.1514 16.7373C19.337 15.448 20 13.7587 20 12C20 10.1435 19.2629 8.36256 17.9502 7.0498C16.6374 5.73705 14.8565 5 13 5V3Z" fill="black"/>
<path d="M13 7C14.3261 7 15.5975 7.52716 16.5352 8.46484C17.4728 9.40253 18 10.6739 18 12C18 13.2281 17.547 14.4086 16.7354 15.3213L15.3174 13.9033C15.7563 13.3691 16 12.6974 16 12C16 11.2044 15.6837 10.4415 15.1211 9.87891C14.5585 9.3163 13.7956 9 13 9V7Z" fill="black"/>
<path d="M12 1V10.5859L7.64258 6.22852L12 1Z" fill="black"/>
</svg>
