<svg width="80" height="80" viewBox="0 0 80 80" fill="none" xmlns="http://www.w3.org/2000/svg">
<mask id="mask0_17_2518" style="mask-type:alpha" maskUnits="userSpaceOnUse" x="0" y="0" width="80" height="80">
<path d="M80 80L68.2843 68.2843C75.5229 61.0457 80 51.0457 80 40C80 17.9086 62.0914 0 40 0C28.9543 0 18.9543 4.4771 11.7157 11.7157L0 0V43.4286C0 56.2298 0 62.6304 2.49128 67.5198C4.6827 71.8206 8.17941 75.3173 12.4802 77.5087C17.3696 80 23.7702 80 36.5714 80H80Z" fill="#F5F5F5"/>
</mask>
<g mask="url(#mask0_17_2518)">
<path d="M0 0H80V80H0V0Z" fill="#C9F938"/>
<path fill-rule="evenodd" clip-rule="evenodd" d="M2.49128 67.5198C4.6827 71.8206 8.17941 75.3173 12.4802 77.5087C17.3696 80 23.7702 80 36.5714 80H80L68.2843 68.2843C75.5229 61.0457 80 51.0457 80 40C80 17.9086 62.0914 0 40 0C28.9543 0 18.9543 4.4771 11.7157 11.7157L0 0L0 43.4286C0 56.2298 0 62.6304 2.49128 67.5198ZM1 2.41422L1 43.4286C1 49.8457 1.00078 54.5984 1.30809 58.3597C1.61444 62.1093 2.22044 64.7856 3.38229 67.0658C5.47783 71.1784 8.82156 74.5222 12.9342 76.6177C15.2144 77.7796 17.8907 78.3856 21.6403 78.6919C25.4016 78.9992 30.1543 79 36.5714 79H77.5858L66.8701 68.2843L67.5772 67.5772C74.6359 60.5185 79 50.7698 79 40C79 18.4609 61.5391 1 40 1C29.2302 1 19.4815 5.36408 12.4228 12.4228L11.7157 13.1299L1 2.41422Z" fill="#111014" fill-opacity="0.16"/>
</g>
</svg>
