<svg width="80" height="80" viewBox="0 0 80 80" fill="none" xmlns="http://www.w3.org/2000/svg">
<mask id="mask0_17_2480" style="mask-type:alpha" maskUnits="userSpaceOnUse" x="0" y="0" width="80" height="80">
<path d="M21.2854 58.7146C8.96691 54.981 0 43.5377 0 30C0 13.4315 13.4315 0 30 0C43.5377 0 54.981 8.96691 58.7146 21.2854C71.0331 25.019 80 36.4623 80 50C80 66.5685 66.5685 80 50 80C36.4623 80 25.019 71.0331 21.2854 58.7146Z" fill="#F5F5F5"/>
</mask>
<g mask="url(#mask0_17_2480)">
<path d="M0 0H80V80H0V0Z" fill="#C9F938"/>
</g>
<path fill-rule="evenodd" clip-rule="evenodd" d="M22.0872 57.9128L22.2424 58.4246C25.8518 70.3332 36.9151 79 50 79C66.0163 79 79 66.0163 79 50C79 36.9151 70.3332 25.8518 58.4246 22.2424L57.9128 22.0872L57.7576 21.5754C54.1482 9.66682 43.0849 1 30 1C13.9837 1 1 13.9837 1 30C1 43.0849 9.66682 54.1482 21.5754 57.7576L22.0872 57.9128ZM58.7146 21.2854C54.981 8.96691 43.5377 0 30 0C13.4315 0 0 13.4315 0 30C0 43.5377 8.96691 54.981 21.2854 58.7146C25.019 71.0331 36.4623 80 50 80C66.5685 80 80 66.5685 80 50C80 36.4623 71.0331 25.019 58.7146 21.2854Z" fill="#111014" fill-opacity="0.16"/>
</svg>
