<svg width="80" height="80" viewBox="0 0 80 80" fill="none" xmlns="http://www.w3.org/2000/svg">
<mask id="mask0_17_2556" style="mask-type:alpha" maskUnits="userSpaceOnUse" x="0" y="0" width="80" height="80">
<path d="M5.88745 5.88745C-1.96248 13.7374 -1.96248 26.4646 5.88745 34.3146L11.5729 40L5.88745 45.6854C-1.96248 53.5354 -1.96248 66.2626 5.88745 74.1125C13.7374 81.9625 26.4646 81.9625 34.3146 74.1125L40 68.4271L45.6854 74.1125C53.5354 81.9625 66.2626 81.9625 74.1125 74.1125C81.9625 66.2626 81.9625 53.5354 74.1125 45.6854L68.4271 40L74.1125 34.3146C81.9625 26.4646 81.9625 13.7374 74.1125 5.88745C66.2626 -1.96248 53.5354 -1.96248 45.6854 5.88745L40 11.5729L34.3146 5.88745C26.4646 -1.96248 13.7374 -1.96248 5.88745 5.88745Z" fill="#F5F5F5"/>
</mask>
<g mask="url(#mask0_17_2556)">
<path d="M0 0H80V80H0V0Z" fill="#C9F938"/>
<path fill-rule="evenodd" clip-rule="evenodd" d="M12.9871 40L6.59456 46.3925C-0.864852 53.8519 -0.864851 65.946 6.59456 73.4054C14.054 80.8649 26.1481 80.8649 33.6075 73.4054L40 67.0129L46.3925 73.4054C53.8519 80.8648 65.946 80.8648 73.4054 73.4054C80.8648 65.946 80.8648 53.8519 73.4054 46.3925L67.0129 40L73.4054 33.6075C80.8648 26.1481 80.8648 14.054 73.4054 6.59456C65.946 -0.864849 53.8519 -0.86485 46.3925 6.59456L40 12.9871L33.6075 6.59456C26.1481 -0.864852 14.054 -0.864851 6.59456 6.59456C-0.86485 14.054 -0.864851 26.1481 6.59456 33.6075L12.9871 40ZM34.3146 5.88745C26.4646 -1.96248 13.7374 -1.96248 5.88745 5.88745C-1.96248 13.7374 -1.96248 26.4646 5.88745 34.3146L11.5729 40L5.88745 45.6854C-1.96248 53.5354 -1.96248 66.2626 5.88745 74.1125C13.7374 81.9625 26.4646 81.9625 34.3146 74.1125L40 68.4271L45.6854 74.1125C53.5354 81.9625 66.2626 81.9625 74.1125 74.1125C81.9625 66.2626 81.9625 53.5354 74.1125 45.6854L68.4271 40L74.1125 34.3146C81.9625 26.4646 81.9625 13.7374 74.1125 5.88745C66.2626 -1.96248 53.5354 -1.96248 45.6854 5.88745L40 11.5729L34.3146 5.88745Z" fill="#111014" fill-opacity="0.16"/>
</g>
</svg>
