<svg width="80" height="80" viewBox="0 0 80 80" fill="none" xmlns="http://www.w3.org/2000/svg">
<mask id="mask0_17_2499" style="mask-type:alpha" maskUnits="userSpaceOnUse" x="0" y="0" width="80" height="80">
<path d="M0 36.5714C0 23.7702 0 17.3696 2.49128 12.4802C4.68267 8.17937 8.17937 4.68267 12.4802 2.49128C17.3696 0 23.7702 0 36.5714 0H80V43.4286C80 56.2298 80 62.6304 77.5087 67.5198C75.3173 71.8206 71.8206 75.3173 67.5198 77.5087C62.6304 80 56.2298 80 43.4286 80H0V36.5714Z" fill="#F5F5F5"/>
</mask>
<g mask="url(#mask0_17_2499)">
<path d="M0 0H80V80H0V0Z" fill="#C9F938"/>
<path fill-rule="evenodd" clip-rule="evenodd" d="M79 1H36.5714C30.1543 1 25.4016 1.00078 21.6403 1.30809C17.8907 1.61445 15.2144 2.22045 12.9342 3.38229C8.82152 5.4778 5.4778 8.82152 3.38229 12.9342C2.22045 15.2144 1.61445 17.8907 1.30809 21.6403C1.00078 25.4016 1 30.1543 1 36.5714V79H43.4286C49.8457 79 54.5984 78.9992 58.3597 78.6919C62.1093 78.3856 64.7856 77.7796 67.0658 76.6177C71.1785 74.5222 74.5222 71.1785 76.6177 67.0658C77.7796 64.7856 78.3856 62.1093 78.6919 58.3597C78.9992 54.5984 79 49.8457 79 43.4286V1ZM2.49128 12.4802C0 17.3696 0 23.7702 0 36.5714V80H43.4286C56.2298 80 62.6304 80 67.5198 77.5087C71.8206 75.3173 75.3173 71.8206 77.5087 67.5198C80 62.6304 80 56.2298 80 43.4286V0H36.5714C23.7702 0 17.3696 0 12.4802 2.49128C8.17937 4.68267 4.68267 8.17937 2.49128 12.4802Z" fill="#111014" fill-opacity="0.16"/>
</g>
</svg>
