<svg width="80" height="80" viewBox="0 0 80 80" fill="none" xmlns="http://www.w3.org/2000/svg">
<mask id="mask0_17_2385" style="mask-type:alpha" maskUnits="userSpaceOnUse" x="0" y="0" width="80" height="80">
<path d="M0 36.5714C0 23.7702 0 17.3696 2.49128 12.4802C4.68267 8.17937 8.17937 4.68267 12.4802 2.49128C17.3696 0 23.7702 0 36.5714 0H43.4286C56.2298 0 62.6304 0 67.5198 2.49128C71.8206 4.68267 75.3173 8.17937 77.5087 12.4802C80 17.3696 80 23.7702 80 36.5714V43.4286C80 56.2298 80 62.6304 77.5087 67.5198C75.3173 71.8206 71.8206 75.3173 67.5198 77.5087C62.6304 80 56.2298 80 43.4286 80H36.5714C23.7702 80 17.3696 80 12.4802 77.5087C8.17937 75.3173 4.68267 71.8206 2.49128 67.5198C0 62.6304 0 56.2298 0 43.4286V36.5714Z" fill="#F5F5F5"/>
</mask>
<g mask="url(#mask0_17_2385)">
<path d="M0 0H80V80H0V0Z" fill="#C9F938"/>
<path fill-rule="evenodd" clip-rule="evenodd" d="M43.4286 1H36.5714C30.1543 1 25.4016 1.00078 21.6403 1.30809C17.8907 1.61445 15.2144 2.22045 12.9342 3.38229C8.82152 5.4778 5.4778 8.82152 3.38229 12.9342C2.22045 15.2144 1.61445 17.8907 1.30809 21.6403C1.00078 25.4016 1 30.1543 1 36.5714V43.4286C1 49.8457 1.00078 54.5984 1.30809 58.3597C1.61445 62.1093 2.22045 64.7856 3.38229 67.0658C5.4778 71.1785 8.82152 74.5222 12.9342 76.6177C15.2144 77.7796 17.8907 78.3856 21.6403 78.6919C25.4016 78.9992 30.1543 79 36.5714 79H43.4286C49.8457 79 54.5984 78.9992 58.3597 78.6919C62.1093 78.3856 64.7856 77.7796 67.0658 76.6177C71.1785 74.5222 74.5222 71.1785 76.6177 67.0658C77.7796 64.7856 78.3856 62.1093 78.6919 58.3597C78.9992 54.5984 79 49.8457 79 43.4286V36.5714C79 30.1543 78.9992 25.4016 78.6919 21.6403C78.3856 17.8907 77.7796 15.2144 76.6177 12.9342C74.5222 8.82152 71.1785 5.4778 67.0658 3.38229C64.7856 2.22045 62.1093 1.61445 58.3597 1.30809C54.5984 1.00078 49.8457 1 43.4286 1ZM2.49128 12.4802C0 17.3696 0 23.7702 0 36.5714V43.4286C0 56.2298 0 62.6304 2.49128 67.5198C4.68267 71.8206 8.17937 75.3173 12.4802 77.5087C17.3696 80 23.7702 80 36.5714 80H43.4286C56.2298 80 62.6304 80 67.5198 77.5087C71.8206 75.3173 75.3173 71.8206 77.5087 67.5198C80 62.6304 80 56.2298 80 43.4286V36.5714C80 23.7702 80 17.3696 77.5087 12.4802C75.3173 8.17937 71.8206 4.68267 67.5198 2.49128C62.6304 0 56.2298 0 43.4286 0H36.5714C23.7702 0 17.3696 0 12.4802 2.49128C8.17937 4.68267 4.68267 8.17937 2.49128 12.4802Z" fill="#111014" fill-opacity="0.16"/>
</g>
</svg>
