<svg width="80" height="80" viewBox="0 0 80 80" fill="none" xmlns="http://www.w3.org/2000/svg">
<mask id="mask0_17_2404" style="mask-type:alpha" maskUnits="userSpaceOnUse" x="0" y="0" width="80" height="80">
<path d="M0 0L11.7157 11.7157C4.4771 18.9543 0 28.9543 0 40C0 62.0914 17.9086 80 40 80C51.0457 80 61.0457 75.5229 68.2843 68.2843L80 80V36.5714C80 23.7702 80 17.3696 77.5087 12.4802C75.3173 8.17941 71.8206 4.6827 67.5198 2.49128C62.6304 0 56.2298 0 43.4286 0H0Z" fill="#F5F5F5"/>
</mask>
<g mask="url(#mask0_17_2404)">
<path d="M0 0H80V80H0V0Z" fill="#C9F938"/>
<path fill-rule="evenodd" clip-rule="evenodd" d="M77.5087 12.4802C75.3173 8.17941 71.8206 4.6827 67.5198 2.49128C62.6304 0 56.2298 0 43.4286 0H0L11.7157 11.7157C4.4771 18.9543 0 28.9543 0 40C0 62.0914 17.9086 80 40 80C51.0457 80 61.0457 75.5229 68.2843 68.2843L80 80V36.5714C80 23.7702 80 17.3696 77.5087 12.4802ZM79 77.5858V36.5714C79 30.1543 78.9992 25.4016 78.6919 21.6403C78.3856 17.8907 77.7796 15.2144 76.6177 12.9342C74.5222 8.82156 71.1784 5.47783 67.0658 3.38228C64.7856 2.22045 62.1093 1.61445 58.3597 1.30809C54.5984 1.00078 49.8457 1 43.4286 1H2.41421L13.1299 11.7157L12.4228 12.4228C5.36408 19.4815 1 29.2302 1 40C1 61.5391 18.4609 79 40 79C50.7698 79 60.5185 74.6359 67.5772 67.5772L68.2843 66.8701L79 77.5858Z" fill="#111014" fill-opacity="0.16"/>
</g>
</svg>
