<svg width="80" height="80" viewBox="0 0 80 80" fill="none" xmlns="http://www.w3.org/2000/svg">
<mask id="mask0_17_2594" style="mask-type:alpha" maskUnits="userSpaceOnUse" x="0" y="0" width="80" height="80">
<path d="M0 60C0 71.0457 8.95431 80 20 80C31.0457 80 40 71.0457 40 60C40 71.0457 48.9543 80 60 80C71.0457 80 80 71.0457 80 60V20C80 8.9543 71.0457 0 60 0C48.9543 0 40 8.9543 40 20C40 8.9543 31.0457 0 20 0C8.95431 0 0 8.9543 0 20V60Z" fill="#F5F5F5"/>
</mask>
<g mask="url(#mask0_17_2594)">
<path d="M0 0H80V80H0V0Z" fill="#C9F938"/>
<path fill-rule="evenodd" clip-rule="evenodd" d="M1 60C1 70.4934 9.50659 79 20 79C30.4934 79 39 70.4934 39 60H40C40 61.554 39.8228 63.0667 39.4874 64.5188C37.439 73.388 29.4917 80 20 80C8.95431 80 0 71.0457 0 60L0 20C0 8.95431 8.95431 0 20 0C29.4917 0 37.439 6.61195 39.4874 15.4812C39.8228 16.9333 40 18.446 40 20H39C39 9.50659 30.4934 1 20 1C9.50659 1 1 9.50659 1 20L1 60ZM40.5126 15.4812C40.1772 16.9333 40 18.446 40 20H41C41 9.50659 49.5066 1 60 1C70.4934 1 79 9.50659 79 20V60C79 70.4934 70.4934 79 60 79C49.5066 79 41 70.4934 41 60H40C40 61.554 40.1772 63.0667 40.5126 64.5188C42.561 73.388 50.5083 80 60 80C71.0457 80 80 71.0457 80 60V20C80 8.95431 71.0457 0 60 0C50.5083 0 42.561 6.61195 40.5126 15.4812Z" fill="#111014" fill-opacity="0.16"/>
</g>
</svg>
