<svg width="80" height="80" viewBox="0 0 80 80" fill="none" xmlns="http://www.w3.org/2000/svg">
<mask id="mask0_17_2442" style="mask-type:alpha" maskUnits="userSpaceOnUse" x="0" y="0" width="80" height="80">
<path d="M20 0C8.95431 0 0 8.95431 0 20C0 31.0457 8.95431 40 20 40C8.95431 40 0 48.9543 0 60C0 71.0457 8.95431 80 20 80H60C71.0457 80 80 71.0457 80 60C80 48.9543 71.0457 40 60 40C71.0457 40 80 31.0457 80 20C80 8.95431 71.0457 0 60 0H20Z" fill="#F5F5F5"/>
</mask>
<g mask="url(#mask0_17_2442)">
<path d="M0 0H80V80H0V0Z" fill="#C9F938"/>
<path fill-rule="evenodd" clip-rule="evenodd" d="M20 1C9.50659 1 1 9.50659 1 20C1 30.4934 9.50659 39 20 39V40C18.446 40 16.9333 39.8228 15.4812 39.4874C6.61196 37.439 0 29.4917 0 20C0 8.95431 8.95431 0 20 0H60C71.0457 0 80 8.95431 80 20C80 29.4917 73.388 37.439 64.5188 39.4874C63.0667 39.8228 61.554 40 60 40V39C70.4934 39 79 30.4934 79 20C79 9.50659 70.4934 1 60 1H20ZM64.5188 40.5126C63.0667 40.1772 61.554 40 60 40V41C70.4934 41 79 49.5066 79 60C79 70.4934 70.4934 79 60 79H20C9.50659 79 1 70.4934 1 60C1 49.5066 9.50659 41 20 41V40C18.446 40 16.9333 40.1772 15.4812 40.5126C6.61196 42.561 0 50.5083 0 60C0 71.0457 8.95431 80 20 80H60C71.0457 80 80 71.0457 80 60C80 50.5083 73.388 42.561 64.5188 40.5126Z" fill="#111014" fill-opacity="0.16"/>
</g>
</svg>
