<svg width="80" height="80" viewBox="0 0 80 80" fill="none" xmlns="http://www.w3.org/2000/svg">
<mask id="mask0_17_2537" style="mask-type:alpha" maskUnits="userSpaceOnUse" x="0" y="0" width="80" height="80">
<path d="M80 40C80 56.5685 62.0914 70 40 70C17.9086 70 0 56.5685 0 40C0 23.4315 17.9086 10 40 10C62.0914 10 80 23.4315 80 40Z" fill="#F5F5F5"/>
</mask>
<g mask="url(#mask0_17_2537)">
<path d="M0 0H80V80H0V0Z" fill="#C9F938"/>
<path fill-rule="evenodd" clip-rule="evenodd" d="M67.6843 60.4132C74.7334 55.1263 79 47.8989 79 40C79 32.1011 74.7334 24.8737 67.6843 19.5868C60.6348 14.2997 50.8502 11 40 11C29.1498 11 19.3652 14.2997 12.3157 19.5868C5.26658 24.8737 1 32.1011 1 40C1 47.8989 5.26658 55.1263 12.3157 60.4132C19.3652 65.7003 29.1498 69 40 69C50.8502 69 60.6348 65.7003 67.6843 60.4132ZM40 70C62.0914 70 80 56.5685 80 40C80 23.4315 62.0914 10 40 10C17.9086 10 0 23.4315 0 40C0 56.5685 17.9086 70 40 70Z" fill="#111014" fill-opacity="0.16"/>
</g>
</svg>
