<svg width="24" height="24" viewBox="0 0 24 24" fill="none" xmlns="http://www.w3.org/2000/svg">
<path d="M7 22C6.45 22 5.97917 21.8042 5.5875 21.4125C5.19583 21.0208 5 20.55 5 20V12C5 10.5833 5.37083 9.31667 6.1125 8.2C6.85417 7.08333 7.81667 6.25 9 5.7V5C9 4.16667 9.29167 3.45833 9.875 2.875C10.4583 2.29167 11.1667 2 12 2C12.8333 2 13.5417 2.29167 14.125 2.875C14.7083 3.45833 15 4.16667 15 5V5.7C16.1833 6.25 17.1458 7.08333 17.8875 8.2C18.6292 9.31667 19 10.5833 19 12V20C19 20.55 18.8042 21.0208 18.4125 21.4125C18.0208 21.8042 17.55 22 17 22H7ZM15 16C15.2833 16 15.5208 15.9042 15.7125 15.7125C15.9042 15.5208 16 15.2833 16 15V12H8V14H14V15C14 15.2833 14.0958 15.5208 14.2875 15.7125C14.4792 15.9042 14.7167 16 15 16ZM11 5.1C11.1833 5.06667 11.35 5.04167 11.5 5.025C11.65 5.00833 11.8167 5 12 5C12.1833 5 12.35 5.00833 12.5 5.025C12.65 5.04167 12.8167 5.06667 13 5.1V5C13 4.71667 12.9042 4.47917 12.7125 4.2875C12.5208 4.09583 12.2833 4 12 4C11.7167 4 11.4792 4.09583 11.2875 4.2875C11.0958 4.47917 11 4.71667 11 5V5.1Z" fill="black"/>
</svg>
