<svg width="24" height="24" viewBox="0 0 24 24" fill="none" xmlns="http://www.w3.org/2000/svg">
<path fill-rule="evenodd" clip-rule="evenodd" d="M8 17C9.6356 17 11.0878 16.2147 12 15.0005C12.9122 16.2147 14.3644 17 16 17C18.7614 17 21 14.7614 21 12C21 9.23858 18.7614 7 16 7C14.3644 7 12.9122 7.78534 12 8.99952C11.0878 7.78534 9.6356 7 8 7C5.23858 7 3 9.23858 3 12C3 14.7614 5.23858 17 8 17ZM8 15C9.65685 15 11 13.6569 11 12C11 10.3431 9.65685 9 8 9C6.34315 9 5 10.3431 5 12C5 13.6569 6.34315 15 8 15ZM16 15C14.3431 15 13 13.6569 13 12C13 10.3431 14.3431 9 16 9C17.6569 9 19 10.3431 19 12C19 13.6569 17.6569 15 16 15Z" fill="black"/>
</svg>
