<svg width="24" height="24" viewBox="0 0 24 24" fill="none" xmlns="http://www.w3.org/2000/svg">
<path d="M13.0001 11V2.09998C15.3834 2.34998 17.3959 3.29998 19.0376 4.94998C20.6793 6.59998 21.6334 8.61664 21.9001 11H13.0001ZM11.0251 21.875C8.49177 21.625 6.37093 20.5583 4.6626 18.675C2.95426 16.7916 2.1001 14.5666 2.1001 12C2.1001 9.41664 2.95426 7.18331 4.6626 5.29998C6.37093 3.41664 8.49177 2.34998 11.0251 2.09998V21.875ZM13.0001 21.875V12.975H21.9001C21.6668 15.3583 20.7209 17.3791 19.0626 19.0375C17.4043 20.6958 15.3834 21.6416 13.0001 21.875Z" fill="black"/>
</svg>
