<svg width="24" height="24" viewBox="0 0 24 24" fill="none" xmlns="http://www.w3.org/2000/svg">
<path d="M2.45005 10.575L6.65005 6.37498C6.88338 6.14164 7.15838 5.97498 7.47505 5.87498C7.79172 5.77498 8.11672 5.75831 8.45005 5.82498L9.75005 6.09998C8.85005 7.16664 8.14172 8.13331 7.62505 8.99998C7.10838 9.86664 6.60838 10.9166 6.12505 12.15L2.45005 10.575ZM7.57505 12.85C7.95838 11.65 8.47922 10.5166 9.13755 9.44998C9.79588 8.38331 10.5917 7.38331 11.525 6.44998C12.9917 4.98331 14.6667 3.88748 16.55 3.16248C18.4334 2.43748 20.1917 2.21664 21.825 2.49998C22.1084 4.13331 21.8917 5.89164 21.175 7.77498C20.4584 9.65831 19.3667 11.3333 17.9 12.8C16.9834 13.7166 15.9834 14.5125 14.9 15.1875C13.8167 15.8625 12.675 16.3916 11.475 16.775L7.57505 12.85ZM14.475 9.84998C14.8584 10.2333 15.3292 10.425 15.8875 10.425C16.4459 10.425 16.9167 10.2333 17.3 9.84998C17.6834 9.46664 17.875 8.99581 17.875 8.43748C17.875 7.87914 17.6834 7.40831 17.3 7.02498C16.9167 6.64164 16.4459 6.44998 15.8875 6.44998C15.3292 6.44998 14.8584 6.64164 14.475 7.02498C14.0917 7.40831 13.9 7.87914 13.9 8.43748C13.9 8.99581 14.0917 9.46664 14.475 9.84998ZM13.775 21.875L12.175 18.2C13.4084 17.7166 14.4625 17.2166 15.3375 16.7C16.2125 16.1833 17.1834 15.475 18.25 14.575L18.5 15.875C18.5667 16.2083 18.55 16.5375 18.45 16.8625C18.35 17.1875 18.1834 17.4666 17.95 17.7L13.775 21.875ZM4.05005 16.05C4.63338 15.4666 5.34172 15.1708 6.17505 15.1625C7.00838 15.1541 7.71672 15.4416 8.30005 16.025C8.88338 16.6083 9.17505 17.3166 9.17505 18.15C9.17505 18.9833 8.88338 19.6916 8.30005 20.275C7.88338 20.6916 7.18755 21.05 6.21255 21.35C5.23755 21.65 3.89172 21.9166 2.17505 22.15C2.40838 20.4333 2.67505 19.0916 2.97505 18.125C3.27505 17.1583 3.63338 16.4666 4.05005 16.05Z" fill="black"/>
</svg>
